<svg width="51" height="75" viewBox="0 0 51 75" fill="none" xmlns="http://www.w3.org/2000/svg">
<path d="M21.7311 48.6942C21.821 48.7032 21.893 48.6807 21.9469 48.6267C21.9802 48.5935 21.9775 48.5624 21.9388 48.5336C21.866 48.4806 21.7954 48.4797 21.7271 48.5309" stroke="#73716F" stroke-width="2"/>
<path d="M6.45069 35.0451C6.53523 35.0055 6.50825 34.9439 6.36975 34.8602C6.33018 34.836 6.28881 34.8324 6.24564 34.8495C6.06668 34.9196 5.97584 35.0743 5.97314 35.3135" stroke="#808080" stroke-width="2"/>
<path d="M40.2881 19.7984C41.4734 18.1778 42.2473 16.3778 42.6098 14.3983C42.6179 14.3525 42.6129 14.3084 42.5949 14.2661C41.3147 11.2794 37.0141 9.38543 34.1326 8.5423C34.0849 8.52791 34.0701 8.5441 34.0881 8.59087C36.0266 13.4891 36.7146 18.9027 36.631 24.1435C36.631 24.1633 36.6188 24.1863 36.5945 24.2123C36.5757 24.2321 36.5662 24.2281 36.5662 24.2002C36.3801 16.5325 34.1232 5.93603 26.7873 1.77974C26.7485 1.75773 26.7041 1.74698 26.6591 1.74872C26.5431 1.75411 26.4284 1.74197 26.3178 1.7757C23.5407 2.60938 21.4578 4.30913 20.0692 6.87493C20.0663 6.88027 20.0648 6.88626 20.0649 6.89235C20.065 6.89844 20.0667 6.90444 20.0698 6.90981C20.0729 6.91517 20.0773 6.91972 20.0826 6.92306C20.0879 6.92639 20.094 6.9284 20.1003 6.92889C21.595 7.02422 23.096 7.12045 24.6032 7.21758C24.8703 7.23512 25.0228 7.31066 25.2292 7.4577C32.5232 12.6784 33.4419 23.2667 32.5516 31.3459C32.5462 31.3926 32.5583 31.434 32.588 31.47C32.8443 31.7749 33.419 32.2726 33.821 31.9867C34.683 31.3742 35.3885 30.2599 35.947 29.379C35.9704 29.3431 36.0032 29.3282 36.0455 29.3345C37.9098 29.6115 39.7831 29.8022 41.6655 29.9065C41.6956 29.9084 41.7243 29.9194 41.748 29.9379C41.7716 29.9565 41.7889 29.9818 41.7977 30.0104C42.4587 32.1566 42.8809 34.6334 42.6772 36.8809C42.5814 37.9493 42.4937 39.1647 41.826 40.0605C41.5895 40.3779 41.3448 40.6904 41.0921 40.998C41.0757 41.0179 41.0671 41.0431 41.0678 41.0689C41.0685 41.0947 41.0786 41.1194 41.0962 41.1383L41.3768 41.4418C41.3956 41.4621 41.4212 41.4749 41.4488 41.4781C41.4764 41.4814 41.5044 41.4747 41.5279 41.4594C42.2896 40.9584 43.0176 40.4152 43.7119 39.8298C44.7817 38.9286 45.4346 38.3486 45.4872 37.0184C45.5376 35.7792 45.4998 34.5421 45.3739 33.3073C45.3694 33.2687 45.386 33.2444 45.4238 33.2345C45.4616 33.2246 45.4872 33.2435 45.5007 33.2911C45.6895 33.9297 45.8573 34.7139 46.0039 35.6438C46.0111 35.6852 46.0353 35.7104 46.0767 35.7194C46.7737 35.8579 47.2796 35.8889 47.5943 35.8124C48.4186 35.6114 49.0472 34.5039 49.4276 33.7633C49.7163 33.1994 47.9748 31.1692 47.5606 30.7307C47.5291 30.6975 47.5143 30.6579 47.5161 30.612C47.6658 27.2678 47.763 22.9834 46.275 19.8928C46.2543 19.8488 46.2246 19.842 46.186 19.8726C44.658 21.0777 43.0046 22.0872 41.2257 22.9011C41.2232 22.9025 41.2202 22.9029 41.2174 22.9022C41.2146 22.9014 41.2123 22.8996 41.2108 22.8971C41.2094 22.8946 41.209 22.8916 41.2098 22.8888C41.2106 22.886 41.2124 22.8837 41.2149 22.8822C47.5741 18.6018 52.0204 11.4211 49.0553 3.6036C49.0355 3.55234 49.0022 3.54064 48.9555 3.56852C48.8539 3.62788 48.7572 3.71691 48.6654 3.83563C47.8318 4.91573 47.2085 5.74312 46.7957 6.31779C46.7832 6.33496 46.7669 6.34892 46.7481 6.35854C46.7294 6.36815 46.7087 6.37314 46.6878 6.3731C43.7901 6.38524 39.9522 6.82637 37.7925 9.06302C37.7583 9.09719 37.7628 9.12597 37.806 9.14936C40.0264 10.3216 42.2509 11.9877 43.3692 14.3039C43.3899 14.3462 43.3967 14.3902 43.3895 14.4361C43.0765 16.5244 41.7788 18.3671 40.2962 19.8051C40.2952 19.8059 40.294 19.8063 40.2928 19.8063C40.2916 19.8062 40.2904 19.8058 40.2895 19.805C40.2885 19.8042 40.2879 19.8031 40.2876 19.8019C40.2874 19.8007 40.2876 19.7995 40.2881 19.7984Z" stroke="#808080" stroke-width="2"/>
<path d="M26.8545 38.8289L26.1489 36.1714" stroke="#808080" stroke-width="2"/>
<path d="M26.149 36.1717C26.1113 35.5701 25.8873 35.2692 25.2573 35.2234C24.5361 35.1703 23.8121 35.1276 23.0854 35.0952C23.0761 35.0949 23.0668 35.0964 23.0581 35.0996C23.0493 35.1029 23.0413 35.1079 23.0346 35.1143C23.0278 35.1207 23.0223 35.1284 23.0186 35.137C23.0148 35.1455 23.0128 35.1547 23.0126 35.164C23.0045 36.0139 23.1381 37.1322 22.8156 37.9241C22.8081 37.9436 22.7945 37.9603 22.7768 37.9715C22.7591 37.9828 22.7383 37.9882 22.7174 37.9868C22.6965 37.9855 22.6766 37.9775 22.6605 37.964C22.6444 37.9505 22.6331 37.9323 22.6281 37.9119C22.3988 37.018 22.3664 36.1146 22.531 35.2018C22.5337 35.1868 22.5331 35.1714 22.5293 35.1566C22.5256 35.1419 22.5187 35.128 22.5091 35.116C22.4996 35.1041 22.4876 35.0942 22.4739 35.0871C22.4602 35.0801 22.4452 35.0759 22.4298 35.075L19.5996 34.936" stroke="#2C4434" stroke-width="2"/>
<path d="M19.5997 34.936L17.9161 34.8348C17.8854 34.8331 17.8547 34.8378 17.8259 34.8483C17.797 34.8589 17.7707 34.8753 17.7484 34.8964C17.7262 34.9175 17.7085 34.9429 17.6965 34.9711C17.6845 34.9992 17.6785 35.0295 17.6787 35.0601C17.6841 35.802 17.676 36.5872 17.9998 37.2698C19.1802 39.7546 21.7878 40.5924 24.4008 40.3064C24.64 40.2803 25.1679 40.2128 25.9845 40.104" stroke="#808080" stroke-width="2"/>
<path d="M25.9841 40.104C25.2044 40.3738 24.4112 40.5554 23.6045 40.649C23.5658 40.6526 23.5334 40.6688 23.5074 40.6975L22.8504 41.4152C22.818 41.4503 22.8023 41.4921 22.8032 41.5407C22.8518 43.6451 22.9475 45.8116 22.7749 47.9107C22.7713 47.9547 22.7897 47.9862 22.8302 48.0051C24.9643 48.9674 27.1942 49.5938 29.5199 49.8843C29.7267 49.9103 29.8864 49.9117 29.9988 49.8883C32.4791 49.3811 34.8525 48.5429 37.1188 47.3738C37.1944 47.3351 37.2348 47.2735 37.2402 47.1889L37.5613 41.8428C37.564 41.806 37.5492 41.7785 37.5168 41.7605C37.1188 41.5339 36.8126 41.2331 36.3607 41.1252C35.3759 40.8877 34.495 40.6652 33.6586 40.0581" stroke="#73716F" stroke-width="2"/>
<path d="M33.6587 40.0581C37.4143 41.7484 42.2599 41.3585 41.8107 35.8748C41.8062 35.8235 41.7784 35.7979 41.7271 35.7979L40.5845 35.7871" stroke="#808080" stroke-width="2"/>
<path d="M40.5846 35.7871L38.0957 35.7857C38.0498 35.7857 38.0255 35.8082 38.0228 35.8532C37.9689 36.7489 37.8079 37.6239 37.5399 38.4783C37.5344 38.4948 37.524 38.5091 37.5101 38.5195C37.4962 38.5298 37.4795 38.5357 37.4622 38.5363C37.4449 38.5369 37.4278 38.5322 37.4132 38.5228C37.3987 38.5134 37.3873 38.4997 37.3807 38.4837C37.1676 37.9401 37.3038 36.5007 37.3092 35.8599C37.3101 35.8158 37.2885 35.7933 37.2445 35.7924L34.8203 35.7466" stroke="#2C4434" stroke-width="2"/>
<path d="M34.8203 35.7467C34.6593 35.7099 34.5172 35.7036 34.394 35.7278C34.3418 35.7386 34.3131 35.7701 34.3077 35.8223C34.1566 37.2315 33.8099 38.6075 33.2676 39.9502" stroke="#808080" stroke-width="2"/>
<path d="M33.2675 39.9499L32.9167 40.5407C32.8816 40.5992 32.8974 40.6356 32.9639 40.65L33.6115 40.793C33.6447 40.8011 33.6618 40.8218 33.6627 40.855C33.6883 41.825 32.7548 43.1767 32.1235 43.8714C32.0948 43.9036 32.0786 43.9452 32.0776 43.9888C32.0668 44.813 32.226 46.4885 31.7889 47.1643C31.7638 47.203 31.7282 47.2205 31.6824 47.2169C30.2686 47.0919 28.8607 47.136 27.4586 47.3491C27.4545 47.3495 27.4503 47.3483 27.4469 47.3459C27.4435 47.3434 27.4411 47.3398 27.4401 47.3358C27.4391 47.3317 27.4396 47.3274 27.4415 47.3236C27.4435 47.3199 27.4467 47.317 27.4505 47.3154C28.5959 46.8864 29.9543 46.7812 31.1657 46.707C31.5137 46.6854 31.704 46.7637 31.7228 46.3037C31.7543 45.5194 31.7849 44.733 31.8146 43.9443C31.8164 43.8993 31.8303 43.8584 31.8564 43.8215C32.485 42.9622 33.0125 42.2472 33.1555 41.1491C33.1645 41.0844 33.1366 41.0484 33.0719 41.0412L32.6725 40.998C32.6541 40.996 32.6356 40.9982 32.6185 41.0045C32.6014 41.0109 32.5862 41.0211 32.5741 41.0344L32.2584 41.3771C32.2152 41.4239 32.1977 41.4153 32.2058 41.3515C32.3946 39.8397 32.4144 38.3247 32.2651 36.8067C32.2606 36.7599 32.2382 36.7239 32.1977 36.6987C31.9917 36.571 31.8074 36.6057 31.6446 36.8026C31.6339 36.816 31.6257 36.8311 31.6203 36.8471C30.8028 39.1342 29.5271 41.1257 27.7932 42.8219C27.7888 42.8259 27.783 42.8282 27.777 42.8284C27.7709 42.8286 27.765 42.8267 27.7604 42.8229C27.7559 42.8192 27.753 42.814 27.7523 42.8083C27.7516 42.8026 27.7532 42.7969 27.7568 42.7922C29.4241 40.2466 31.1455 35.9312 30.1593 32.8784C28.8481 28.8206 27.1308 24.8693 25.3326 21.2095C25.2364 21.0152 25.0916 20.9909 24.8982 21.1366C24.8659 21.1618 24.8474 21.1946 24.8429 21.2351C24.4638 24.9462 23.0191 28.6371 21.3355 32.0339C21.3058 32.0941 21.3243 32.1261 21.3908 32.1297L25.2139 32.3334C25.2384 32.3342 25.2626 32.3271 25.2827 32.3131L27.9483 30.4083C27.9535 30.4047 27.9594 30.4021 27.9656 30.4007C27.9718 30.3994 27.9782 30.3993 27.9844 30.4004C27.9906 30.4015 27.9964 30.4039 28.0016 30.4073C28.0067 30.4108 28.0111 30.4153 28.0144 30.4205C28.5801 31.2937 29.0217 32.2263 29.3392 33.2183C29.3562 33.2705 29.3544 33.3217 29.3338 33.3721C28.9012 34.4405 28.1772 35.245 27.1619 35.7855C27.1205 35.8071 27.098 35.8408 27.0944 35.8866L26.8543 38.8288" stroke="#73716F" stroke-width="2"/>
<path d="M33.2676 39.9502C33.4582 39.9655 33.5886 40.0015 33.6588 40.0581" stroke="#F2F0EF" stroke-width="2"/>
<path d="M25.9844 40.1039C26.4718 39.8161 26.7619 39.3912 26.8545 38.8291" stroke="#F2F0EF" stroke-width="2"/>
<path d="M19.5996 34.936C19.4135 36.6736 19.8654 38.9021 21.7297 39.4296C23.8261 40.0231 25.7106 38.8306 25.6607 36.4604C25.6598 36.4172 25.6787 36.3867 25.7174 36.3687L26.1491 36.1717" stroke="#ACC3B3" stroke-width="2"/>
<path d="M34.82 35.7466C34.4895 37.4126 34.905 39.8003 36.8813 40.1889C39.6926 40.7392 40.6531 38.0291 40.5843 35.7871" stroke="#ACC3B3" stroke-width="2"/>
<path d="M17.9201 31.9598L20.9176 32.1082C20.9402 32.1094 20.9626 32.103 20.981 32.09C20.9994 32.077 21.0127 32.0582 21.0188 32.0367C21.6501 29.9026 22.0216 27.7415 22.1331 25.5534C22.1574 25.0848 22.1421 24.6145 22.0872 24.1423C22.0847 24.1211 22.0775 24.1007 22.0662 24.0826C22.0548 24.0645 22.0395 24.0493 22.0214 24.038C22.0034 24.0267 21.9831 24.0196 21.962 24.0174C21.9409 24.0151 21.9196 24.0177 21.8997 24.025C21.8556 24.0403 21.8062 24.0722 21.7513 24.1207C21.7126 24.1558 21.6812 24.2026 21.6569 24.261C20.5979 26.8889 19.3757 29.4979 17.8985 31.9193C17.8824 31.9445 17.8895 31.958 17.9201 31.9598Z" stroke="#73716F" stroke-width="2"/>
<path d="M36.7697 32.9489L41.1594 33.104C41.225 33.1058 41.2466 33.0761 41.2241 33.015C40.8747 32.0626 39.8603 30.9969 39.144 30.294C39.1213 30.2714 39.0912 30.2575 39.059 30.2549L36.4109 30.0215C36.3713 30.0179 36.3398 30.0323 36.3165 30.0647L35.4949 31.2437C35.4742 31.2734 35.4783 31.2995 35.507 31.322C36.0323 31.7366 36.4199 32.2555 36.6699 32.8787C36.678 32.8988 36.6917 32.9161 36.7094 32.9286C36.7271 32.941 36.7481 32.9481 36.7697 32.9489Z" stroke="#73716F" stroke-width="2"/>
<path d="M47.3618 36.5006C46.9723 36.372 46.5811 36.3625 46.1881 36.4723C46.1414 36.4848 46.1171 36.5154 46.1153 36.564C46.0901 37.2448 46.0065 37.9179 45.8644 38.5834C45.7227 39.2458 43.849 40.5166 43.138 40.9847C43.1221 40.9952 43.1089 41.0092 43.0993 41.0255C43.0897 41.0419 43.084 41.0603 43.0827 41.0791L43.0584 41.4919C43.0548 41.5468 43.0805 41.571 43.1353 41.5647C44.7272 41.3691 46.7898 41.0144 48.0619 39.9621C48.1016 39.9291 48.13 39.8845 48.1431 39.8347C48.1562 39.7848 48.1533 39.7322 48.1347 39.6842C47.7579 38.6959 47.5317 37.6747 47.4562 36.6206C47.4517 36.5595 47.4202 36.5195 47.3618 36.5006Z" stroke="#808080" stroke-width="2"/>
<path d="M19.4632 45.3863C19.0459 45.0607 18.7005 44.7226 18.4271 44.3718C17.5386 43.2342 16.6006 41.9239 15.6131 40.4408C15.5205 40.3014 15.4094 40.2619 15.2799 40.3221C15.2391 40.3409 15.2052 40.372 15.1832 40.411C15.1611 40.45 15.152 40.4949 15.1572 40.5393C15.284 41.6986 15.4746 42.8466 15.7291 43.9833C15.7413 44.0346 15.772 44.0797 15.8155 44.1101C17.9127 45.5572 20.1233 46.8028 22.4472 47.8469C22.4579 47.8515 22.4696 47.8534 22.4812 47.8525C22.4928 47.8516 22.504 47.8479 22.5139 47.8416C22.5237 47.8354 22.5319 47.8268 22.5377 47.8167C22.5434 47.8065 22.5466 47.7951 22.547 47.7835C22.5794 46.4848 22.5825 44.5742 22.5564 42.0516C22.547 41.2395 22.1693 41.1342 21.689 40.5771C21.6603 40.5429 21.6238 40.5204 21.5798 40.5096C20.1148 40.1553 18.8988 39.408 17.9321 38.2676C17.7499 38.0545 17.5462 37.9452 17.383 38.2689C17.3632 38.3067 17.3551 38.3467 17.3587 38.389C17.5651 40.7417 18.5297 43.2171 19.5023 45.3553C19.532 45.42 19.5189 45.4304 19.4632 45.3863Z" stroke="#73716F" stroke-width="2"/>
<path d="M41.0501 42.5321L40.7061 42.52C40.6842 42.5192 40.6629 42.5126 40.6443 42.5011C40.6256 42.4895 40.6102 42.4732 40.5995 42.4539C40.3756 42.051 40.2128 41.6252 40.1112 41.1764C40.1016 41.1336 40.1027 41.0891 40.1142 41.0468C40.1257 41.0045 40.1474 40.9656 40.1773 40.9336L40.5766 40.5113C40.5848 40.5031 40.5898 40.4923 40.5909 40.4807C40.5919 40.4692 40.5889 40.4576 40.5824 40.448C40.5758 40.4384 40.5661 40.4314 40.555 40.4282C40.5438 40.425 40.5319 40.4258 40.5213 40.4304C39.9043 40.693 39.2703 40.9034 38.6192 41.0617C38.397 41.1157 38.1789 41.2803 37.9649 41.5555C37.8597 41.6904 37.8021 41.8576 37.7922 42.0573C37.7095 43.7391 37.6065 45.4235 37.4833 47.1107C37.4797 47.1601 37.5004 47.1732 37.5454 47.1498C38.7739 46.4969 39.9349 45.7401 41.0285 44.8794C41.0445 44.8668 41.0574 44.8508 41.0663 44.8326C41.0751 44.8143 41.0798 44.7944 41.0798 44.7742L41.0959 42.5807C41.096 42.5681 41.0912 42.5559 41.0826 42.5468C41.074 42.5378 41.0624 42.5325 41.0501 42.5321Z" stroke="#73716F" stroke-width="2"/>
<path d="M43.5186 46.4171C45.0592 46.195 46.5143 45.7179 47.884 44.9858C47.9066 44.9737 47.9238 44.9535 47.9321 44.9292C47.9404 44.9049 47.9391 44.8783 47.9285 44.855C47.4582 43.8207 47.1047 42.7474 46.8682 41.6349C46.8664 41.626 46.8627 41.6176 46.8574 41.6102C46.8522 41.6028 46.8455 41.5965 46.8376 41.5917C46.8298 41.5869 46.8211 41.5837 46.812 41.5823C46.8029 41.5809 46.7936 41.5814 46.7846 41.5836C45.5759 41.8993 44.3514 42.134 43.1112 42.2878C43.0753 42.2923 43.0577 42.3125 43.0586 42.3485C43.0919 43.6876 43.2115 45.0191 43.4175 46.3429C43.4265 46.4005 43.4602 46.4252 43.5186 46.4171Z" stroke="#808080" stroke-width="2"/>
<path d="M42.1642 43.974C41.8648 43.8418 41.6503 43.9196 41.5208 44.2074C41.5015 44.2511 41.4973 44.3 41.5086 44.3464C41.5788 44.6423 41.5262 44.9004 41.3508 45.1207C41.322 45.1567 41.3076 45.1985 41.3076 45.2462L41.3144 46.6006C41.3153 46.6473 41.3386 46.6689 41.3845 46.6653L42.7686 46.5425C42.8315 46.5372 42.8527 46.5048 42.832 46.4454C42.582 45.7215 42.4187 44.9786 42.3423 44.2169C42.337 44.1644 42.3177 44.1143 42.2864 44.0716C42.2551 44.0289 42.2129 43.9953 42.1642 43.974Z" stroke="#808080" stroke-width="2"/>
<path d="M44.6601 49.8556C44.0917 49.1172 43.6146 48.3236 43.2288 47.4746C43.2063 47.4251 43.1681 47.4035 43.1141 47.4098L41.2134 47.6284C41.1729 47.6329 41.1536 47.6554 41.1554 47.6958C41.2246 48.9648 41.3928 50.2198 41.6599 51.4609C41.6698 51.5077 41.6986 51.5274 41.7463 51.5203C43.4851 51.2612 45.3481 50.8808 46.8846 49.9824C46.9224 49.9599 46.9336 49.9284 46.9183 49.888L45.7919 46.9188C45.7829 46.8963 45.7663 46.8878 45.742 46.8932L43.7104 47.341C43.7021 47.343 43.6943 47.3465 43.6874 47.3515C43.6805 47.3564 43.6747 47.3626 43.6703 47.3698C43.6659 47.377 43.663 47.3849 43.6617 47.3932C43.6605 47.4015 43.661 47.4099 43.6632 47.4179C43.8781 48.2786 44.2203 49.084 44.6898 49.834C44.6924 49.8381 44.6933 49.8433 44.6923 49.8482C44.6913 49.8532 44.6886 49.8576 44.6846 49.8604C44.6807 49.8633 44.6759 49.8644 44.6713 49.8635C44.6667 49.8626 44.6627 49.8597 44.6601 49.8556Z" stroke="#808080" stroke-width="2"/>
<path d="M32.771 50.2039L34.1349 51.9077C34.1476 51.9234 34.1635 51.9361 34.1814 51.9449C34.1993 51.9538 34.2189 51.9586 34.2388 51.959C36.2794 52.0066 38.3137 51.9198 40.3417 51.6986C40.3875 51.6941 40.3961 51.6739 40.3673 51.6379C39.4545 50.4957 38.6603 49.2767 37.9849 47.9808C37.9763 47.964 37.9614 47.9513 37.9436 47.9452C37.9257 47.9392 37.9062 47.9403 37.8892 47.9484C36.1903 48.7452 34.4573 49.4593 32.6901 50.0906C32.6817 50.0933 32.6743 50.0986 32.6691 50.1058C32.6639 50.1129 32.6611 50.1215 32.6611 50.1304C32.6611 50.1392 32.6639 50.1479 32.6691 50.155C32.6743 50.1622 32.6817 50.1675 32.6901 50.1702L32.7495 50.1891C32.7575 50.1918 32.7647 50.1967 32.771 50.2039Z" stroke="#808080" stroke-width="2"/>
<path d="M21.0874 53.269C21.0885 53.2665 21.09 53.2643 21.0919 53.2624C21.0939 53.2605 21.0962 53.259 21.0987 53.258C21.1012 53.257 21.1038 53.2565 21.1065 53.2566C21.1092 53.2566 21.1119 53.2571 21.1144 53.2582C21.1169 53.2593 21.1191 53.2608 21.121 53.2627C21.1229 53.2647 21.1244 53.267 21.1254 53.2695C21.1264 53.272 21.1269 53.2746 21.1268 53.2773C21.1268 53.28 21.1262 53.2827 21.1252 53.2852C20.1251 56.2953 20.1903 59.2788 21.3208 62.2358C21.3424 62.2916 21.3783 62.3037 21.4287 62.2723C21.9269 61.9629 22.4638 61.752 23.0394 61.6396C23.0934 61.6297 23.1285 61.5982 23.1446 61.5451C23.6015 60.037 24.3133 58.6614 25.2801 57.4185C25.3073 57.3833 25.3416 57.3542 25.3809 57.333C25.4201 57.3119 25.4635 57.2992 25.5081 57.2958L28.1279 57.0786C28.1773 57.0741 28.2021 57.0471 28.2021 56.9977V55.0672C28.2021 55.013 28.184 54.9603 28.1508 54.9175L23.3807 48.9333C23.3697 48.9193 23.3541 48.9096 23.3364 48.906C23.3187 48.9023 23.3 48.9048 23.2836 48.9131C18.7415 51.3089 15.3798 55.6999 16.0165 61.0325C16.1959 62.5407 16.7031 64.0556 17.3574 65.4613C17.3662 65.4795 17.381 65.4941 17.3993 65.5025C17.4175 65.5109 17.438 65.5125 17.4572 65.5072L21.4975 64.4185C21.5497 64.4041 21.5659 64.3713 21.5461 64.3201C20.2146 60.9543 19.2069 56.6496 21.0874 53.269Z" stroke="#808080" stroke-width="2"/>
<path d="M29.392 50.8408C27.8739 50.6627 26.4291 50.2391 25.0577 49.57C25.0567 49.5692 25.0556 49.5686 25.0543 49.5683C25.0531 49.5679 25.0519 49.5678 25.0506 49.5679C25.0494 49.568 25.0482 49.5684 25.047 49.569C25.0459 49.5696 25.045 49.5704 25.0442 49.5714C25.0434 49.5724 25.0428 49.5735 25.0424 49.5747C25.042 49.5759 25.0419 49.5772 25.042 49.5784C25.0422 49.5797 25.0425 49.5809 25.0431 49.582C25.0437 49.5831 25.0445 49.5841 25.0455 49.5849L28.7094 54.0771C28.7134 54.0822 28.7187 54.0863 28.7247 54.0889C28.7307 54.0915 28.7373 54.0926 28.744 54.0921C28.7506 54.0916 28.7571 54.0894 28.7628 54.0859C28.7685 54.0823 28.7733 54.0774 28.7769 54.0717L30.8287 50.6128C30.8566 50.5643 30.8431 50.5467 30.7882 50.5602C30.3444 50.6641 29.8453 50.8934 29.392 50.8408Z" stroke="#73716F" stroke-width="2"/>
<path d="M33.605 55.8914L35.696 62.5555C35.7074 62.593 35.7309 62.6256 35.7628 62.6484C35.7946 62.6712 35.8331 62.6829 35.8724 62.6816C35.9117 62.6804 35.9496 62.6664 35.9804 62.6416C36.0111 62.6169 36.033 62.5829 36.0427 62.5447C37.1448 58.0984 35.2211 53.6629 32.1359 50.4509C32.0865 50.3996 32.0429 50.4041 32.0051 50.4644L29.1169 54.9525C29.0917 54.9921 29.0791 55.0352 29.0791 55.082V57.0866C29.0791 57.1496 29.1106 57.1833 29.1735 57.1878L31.9903 57.3821C32.037 57.3857 32.0716 57.4077 32.0941 57.4482C32.8118 58.7603 33.4085 60.1255 33.8843 61.5437C33.9013 61.5959 33.9364 61.6296 33.9895 61.6449L34.9297 61.9228C34.9918 61.9408 35.0152 61.9183 34.9999 61.8554L33.5875 55.8955C33.5876 55.8935 33.5884 55.8916 33.5897 55.89C33.5911 55.8885 33.5928 55.8875 33.5948 55.887C33.5967 55.8866 33.5988 55.8868 33.6006 55.8875C33.6024 55.8883 33.604 55.8897 33.605 55.8914Z" stroke="#808080" stroke-width="2"/>
<path d="M24.8348 61.2804C27.4653 60.908 29.9826 60.9161 32.5983 61.283C32.6505 61.2902 32.677 61.2673 32.6779 61.2142C32.6846 60.4116 31.909 59.1165 31.4503 58.4609C31.4242 58.4241 31.3891 58.4016 31.3451 58.3935C29.6957 58.0688 28.0445 58.0526 26.3915 58.3449C25.9032 58.4313 25.8762 58.6673 25.6334 59.0424C25.1972 59.7178 24.8973 60.4273 24.7336 61.1711C24.7147 61.2565 24.7484 61.2929 24.8348 61.2804Z" stroke="#808080" stroke-width="2"/>
<path d="M5.2621 64.5076C7.0954 67.6413 10.0173 70.1694 13.4694 71.4185C13.4935 71.4275 13.5201 71.4273 13.5441 71.4178C13.568 71.4084 13.5875 71.3903 13.5989 71.3673L16.5573 65.5463C16.5771 65.5076 16.5762 65.4694 16.5546 65.4317C16.1014 64.6231 15.792 63.7634 15.6265 62.8524C15.6251 62.8442 15.6216 62.8365 15.6163 62.8301C15.611 62.8237 15.6041 62.8188 15.5963 62.8159C15.5885 62.813 15.58 62.8123 15.5718 62.8137C15.5637 62.8151 15.556 62.8187 15.5496 62.824L11.9302 65.8229C11.8907 65.8552 11.8457 65.866 11.7953 65.8552L5.30392 64.4509C5.24726 64.4392 5.23332 64.4581 5.2621 64.5076Z" stroke="#4F4A49" stroke-width="2"/>
<path d="M39.4097 68.1267C39.9263 67.6154 41.243 66.4836 41.6598 67.3537C42.2142 68.5165 41.7583 69.9559 41.39 71.1417C41.3702 71.2056 41.3878 71.2182 41.4426 71.1795C43.7858 69.5216 45.7459 67.0178 46.268 64.1485C46.27 64.1368 46.2691 64.1248 46.2655 64.1135C46.2618 64.1022 46.2556 64.092 46.2472 64.0838C46.2388 64.0755 46.2286 64.0695 46.2174 64.0662C46.2062 64.0629 46.1944 64.0624 46.183 64.0648C44.4896 64.4066 42.9045 65.0262 41.4278 65.9238C41.3882 65.948 41.3509 65.9449 41.3158 65.9143C40.0032 64.7866 38.5031 63.6574 36.8992 62.9829C36.8515 62.9622 36.8227 62.978 36.8128 63.0301L36.6186 64.0662C36.6117 64.1042 36.6199 64.1434 36.6415 64.1755L39.3071 68.1159C39.3124 68.1241 39.3195 68.131 39.3278 68.1361C39.3362 68.1412 39.3456 68.1444 39.3554 68.1454C39.3652 68.1465 39.3751 68.1453 39.3845 68.1421C39.3939 68.1388 39.4025 68.1336 39.4097 68.1267Z" stroke="#4F4A49" stroke-width="2"/>
<path d="M25.74 72.7537L30.3253 72.8522C30.3702 72.8531 30.3927 72.8311 30.3927 72.7861C30.3954 70.0557 29.9961 67.3105 29.5307 64.6206C29.5226 64.5711 29.4934 64.5464 29.443 64.5464H27.8269C27.7721 64.5464 27.7406 64.5734 27.7325 64.6273C27.3377 67.3856 26.6569 70.0706 25.6901 72.6822C25.673 72.729 25.6896 72.7528 25.74 72.7537Z" stroke="#808080" stroke-width="2"/>
<path d="M30.9259 72.8656L34.6141 72.9317C34.6653 72.9326 34.6851 72.9079 34.6734 72.8575C34.5502 72.3278 34.4185 71.8836 34.2782 71.5247C33.4202 69.3249 32.395 67.0343 31.2024 64.6529C31.1827 64.6133 31.1503 64.5926 31.1053 64.5908L30.0598 64.545C30.0489 64.5446 30.038 64.5466 30.028 64.551C30.018 64.5554 30.0091 64.562 30.002 64.5703C29.9948 64.5786 29.9897 64.5884 29.9869 64.5989C29.984 64.6095 29.9836 64.6206 29.9856 64.6313C30.4434 67.3365 30.7339 70.0593 30.8571 72.7995C30.8589 72.8436 30.8818 72.8656 30.9259 72.8656Z" stroke="#808080" stroke-width="2"/>
<path d="M20.8285 72.6447L25.1601 72.7526C25.2195 72.7535 25.2591 72.7261 25.2789 72.6703C26.1881 70.0685 26.8603 67.4065 27.2956 64.6842C27.2978 64.6698 27.2969 64.6552 27.2928 64.6412C27.2887 64.6273 27.2817 64.6144 27.2721 64.6036C27.2626 64.5928 27.2508 64.5842 27.2376 64.5786C27.2244 64.5729 27.2101 64.5703 27.1958 64.5709C25.3746 64.6343 23.5494 64.7759 21.7553 65.2805C20.1715 65.7265 18.5905 66.1892 17.0122 66.6686C16.9913 66.6753 16.9722 66.6867 16.9565 66.7019C16.9408 66.7171 16.9289 66.7357 16.9218 66.7563C16.25 68.7434 15.1923 70.5901 14.1064 72.3749C14.083 72.4127 14.0934 72.432 14.1374 72.4329L18.5945 72.5745C18.6058 72.5751 18.617 72.5727 18.6272 72.5676C18.6373 72.5626 18.6459 72.555 18.6523 72.5457C18.6586 72.5364 18.6625 72.5256 18.6635 72.5143C18.6645 72.5031 18.6626 72.4918 18.6579 72.4815C17.8958 70.8033 17.3818 68.7002 18.5379 67.1475C18.733 66.8849 18.9538 66.7275 19.2002 66.6753C20.4872 66.4015 20.9755 68.916 20.9728 69.8091C20.9692 70.9602 20.9049 71.8852 20.7799 72.584C20.7727 72.6235 20.7889 72.6438 20.8285 72.6447Z" stroke="#808080" stroke-width="2"/>
<path d="M35.1862 72.9656L37.9152 73.0182C37.971 73.02 37.989 72.9943 37.9692 72.9413C37.5726 71.8702 38.3226 69.8683 38.7745 68.8605C38.7874 68.8317 38.7927 68.8001 38.7901 68.7688C38.7875 68.7374 38.7771 68.7073 38.7597 68.6811C37.989 67.5237 37.2196 66.3725 36.4515 65.2277C36.3868 65.1314 36.2672 65.0712 36.0927 65.0469C34.4559 64.8239 33.0192 64.6773 31.7826 64.6071C31.726 64.6044 31.7098 64.6287 31.7341 64.68C32.9819 67.3308 34.2891 70.0814 35.0998 72.8995C35.1053 72.9182 35.1166 72.9348 35.1322 72.9467C35.1477 72.9586 35.1666 72.9652 35.1862 72.9656Z" stroke="#808080" stroke-width="2"/>
<path d="M39.9343 73.2273C39.9293 73.2335 39.9261 73.2411 39.9251 73.249C39.9241 73.257 39.9254 73.2651 39.9288 73.2724C39.9321 73.2797 39.9375 73.2859 39.9442 73.2903C39.9509 73.2947 39.9586 73.2972 39.9667 73.2974L41.0607 73.3325C41.0688 73.3328 41.0769 73.3308 41.084 73.3268C41.091 73.3227 41.0968 73.3168 41.1006 73.3096C41.1044 73.3024 41.1061 73.2942 41.1055 73.2861C41.1049 73.278 41.102 73.2702 41.0971 73.2637L40.5724 72.5312C40.5686 72.5257 40.5635 72.5212 40.5577 72.518C40.5518 72.5148 40.5453 72.513 40.5386 72.5127C40.532 72.5125 40.5253 72.5138 40.5193 72.5165C40.5132 72.5192 40.5078 72.5233 40.5036 72.5285L39.9343 73.2273Z" stroke="#808080" stroke-width="2"/>
<path d="M28.494 52.8516C28.5675 52.8539 28.6408 52.8376 28.7098 52.8036C28.7789 52.7697 28.8422 52.7187 28.8963 52.6536C28.9503 52.5885 28.994 52.5105 29.0249 52.4242C29.0558 52.3379 29.0732 52.2449 29.0761 52.1505C29.0791 52.0562 29.0676 51.9623 29.0422 51.8742C29.0168 51.7861 28.9781 51.7056 28.9282 51.6372C28.8783 51.5688 28.8183 51.514 28.7516 51.4757C28.6848 51.4375 28.6126 51.4166 28.5391 51.4143C28.4657 51.412 28.3923 51.4283 28.3233 51.4623C28.2543 51.4962 28.1909 51.5472 28.1369 51.6123C28.0828 51.6774 28.0391 51.7554 28.0082 51.8417C27.9774 51.928 27.96 52.021 27.957 52.1154C27.954 52.2097 27.9656 52.3036 27.9909 52.3917C28.0163 52.4798 28.0551 52.5603 28.1049 52.6287C28.1548 52.6971 28.2148 52.7519 28.2816 52.7902C28.3483 52.8284 28.4205 52.8493 28.494 52.8516Z" stroke="#73716F" stroke-width="2"/>
<path d="M17.0202 73.4579C15.995 73.3464 14.9603 73.3365 13.9161 73.4283C13.4692 73.3401 12.9916 73.3176 12.4835 73.3608C12.4548 73.3632 12.4261 73.3575 12.4005 73.3442C12.375 73.3309 12.3537 73.3107 12.3392 73.2859C12.3246 73.2611 12.3174 73.2326 12.3184 73.2039C12.3193 73.1751 12.3284 73.1472 12.3446 73.1234L12.8383 72.3963C12.8509 72.3777 12.8592 72.3566 12.8624 72.3343C12.8656 72.3121 12.8637 72.2895 12.8568 72.2681C12.8499 72.2468 12.8382 72.2273 12.8226 72.2111C12.807 72.195 12.7879 72.1826 12.7668 72.175C8.78992 70.7235 5.58064 67.177 3.66235 63.5117C3.65364 63.4948 3.64986 63.4758 3.65145 63.4569C3.65304 63.438 3.65993 63.4198 3.67133 63.4046C3.68273 63.3894 3.69819 63.3777 3.71593 63.3709C3.73367 63.3641 3.75297 63.3624 3.77162 63.366L11.7159 64.9349C11.7739 64.9462 11.8339 64.9428 11.8904 64.9251C11.9469 64.9075 11.9982 64.8761 12.0397 64.8338C12.5244 64.3319 13.0155 63.8445 13.5128 63.3714C13.734 63.161 14.0092 63.1097 14.2183 62.9006C14.5502 62.5706 14.8524 62.267 15.1248 61.99C15.2278 61.8854 15.2854 61.7439 15.2854 61.5961C15.2854 60.3281 15.2355 59.1356 15.4756 57.8567C16.1622 54.1874 18.3368 50.7609 21.6028 48.8737C21.6765 48.8305 21.7192 48.7707 21.7309 48.6943C21.8209 48.7032 21.8928 48.6808 21.9468 48.6268C21.98 48.5935 21.9773 48.5625 21.9387 48.5337C21.8658 48.4807 21.7952 48.4798 21.7269 48.531C21.6963 48.513 21.6689 48.4901 21.6446 48.4622C21.6176 48.4316 21.5857 48.4065 21.5488 48.3867L19.9287 47.5206C19.8754 47.4922 19.8158 47.4779 19.7555 47.4791C19.6951 47.4804 19.6361 47.4971 19.5841 47.5277C19.5321 47.5583 19.4888 47.6018 19.4584 47.6539C19.4281 47.7061 19.4116 47.7652 19.4106 47.8255L19.3661 50.1755C19.3655 50.1921 19.3596 50.208 19.3491 50.221C19.3387 50.2339 19.3244 50.2431 19.3083 50.2472C19.2922 50.2513 19.2752 50.2501 19.2598 50.2437C19.2445 50.2373 19.2316 50.2262 19.2231 50.2119C18.3742 48.6974 17.5351 47.2094 16.7059 45.748C16.5944 45.5511 16.4271 45.44 16.2041 45.4148C16.1903 45.4133 16.1765 45.4147 16.1633 45.4187C16.1501 45.4228 16.1379 45.4296 16.1274 45.4385C16.1169 45.4475 16.1084 45.4585 16.1023 45.4709C16.0962 45.4833 16.0927 45.4968 16.0921 45.5106C16.0588 46.2499 16.0561 46.9878 16.084 47.7243C16.0921 47.9631 16.227 48.2882 16.2068 48.4933C16.1393 49.1637 16.3349 49.7573 16.3201 50.3886C16.3039 51.0703 16.356 51.7336 16.4766 52.3784C16.4802 52.4007 16.4764 52.4235 16.4659 52.4435C16.4554 52.4635 16.4386 52.4794 16.4182 52.4891C16.3978 52.4987 16.3748 52.5013 16.3527 52.4967C16.3306 52.4921 16.3106 52.4804 16.2958 52.4634C16.0813 52.2071 15.9289 51.8374 15.8115 51.6351C13.7799 48.1196 11.7411 44.6077 9.69511 41.0994C9.59393 40.9253 9.41721 40.6731 9.19328 40.6987C8.86547 40.7365 8.83039 41.3759 8.80746 41.616C8.65907 43.1854 8.40231 44.7358 8.03718 46.2674C7.88069 46.9257 7.79301 47.4491 7.46385 48.0778C7.45253 48.0992 7.43391 48.1158 7.41136 48.1247C7.38881 48.1335 7.36384 48.134 7.34097 48.126C7.31811 48.118 7.29888 48.102 7.28677 48.0811C7.27466 48.0601 7.27048 48.0355 7.27499 48.0117C7.391 47.4325 7.45486 46.829 7.46655 46.2013C7.47194 45.9207 7.55019 45.6455 7.55828 45.3865C7.63113 43.2052 7.59605 41.4191 7.37886 39.4859C7.21878 38.0515 6.95393 36.6359 6.5843 35.2393C6.56991 35.1853 6.52539 35.1206 6.45075 35.045C6.53529 35.0054 6.50831 34.9438 6.36981 34.8602C6.33024 34.8359 6.28887 34.8323 6.2457 34.8494C6.06673 34.9196 5.9759 35.0742 5.9732 35.3135C5.66383 35.9007 5.33242 36.4786 4.97898 37.0469C4.61745 37.6279 4.2096 38.1491 3.75544 38.6104C2.91905 39.4621 2.01117 40.2396 1.0318 40.9429C1.0208 40.9507 1.00732 40.9543 0.993888 40.9529C0.980455 40.9515 0.968 40.9452 0.958874 40.9352C0.949747 40.9253 0.944579 40.9123 0.944344 40.8988C0.94411 40.8853 0.948825 40.8722 0.957601 40.8619C1.48101 40.2643 1.93968 39.9163 2.41857 39.0974C4.20735 36.0338 5.25148 32.2445 5.67372 28.8315C5.78839 27.9007 5.94352 27.1668 5.97725 26.2981C5.99478 25.8381 6.10271 25.3686 6.10675 24.941C6.11485 24.2611 6.02176 23.5299 6.25244 22.8824C7.28848 19.9712 8.64423 17.0898 10.3723 14.5253C10.8512 13.8144 11.3045 13.09 11.8441 12.4236C12.0559 12.1632 12.2016 11.8705 12.4214 11.6263C13.2983 10.655 14.0322 9.63786 15.1815 8.56136C16.1231 7.68046 17.3804 7.77084 18.4029 7.38772C18.4401 7.37356 18.48 7.36892 18.5189 7.37423C19.072 7.44843 19.3041 7.20021 19.5388 6.71052C19.876 6.00724 20.1562 5.52295 20.3792 5.25764C21.5515 3.86142 22.9356 2.26825 24.6245 1.57621C24.9766 1.43187 26.4659 0.811323 27.0055 1.05684C27.5168 1.28887 27.9323 1.48178 28.4166 1.84736C28.6716 2.03892 28.94 2.132 29.1639 2.35728C30.2593 3.45267 31.5584 4.56291 32.4501 5.82827C32.746 6.24916 33.0392 6.6723 33.3297 7.09769C33.5752 7.45652 33.814 7.34186 34.1688 7.44843C34.6121 7.58243 35.0546 7.71688 35.4962 7.85178C35.9643 7.99478 36.3757 8.26592 36.8344 8.48042C36.9054 8.51347 36.9841 8.52678 37.0622 8.51894C37.1403 8.51111 37.2149 8.48243 37.2782 8.4359C39.0791 7.11118 40.8166 6.31931 43.0155 5.94564C44.0286 5.77431 44.749 5.62862 45.9874 5.61918C46.035 5.61918 46.0787 5.60524 46.1182 5.57736C46.5108 5.29811 46.7482 4.84485 47.0315 4.54672C47.4146 4.14471 47.679 3.6267 48.0649 3.25707C48.3792 2.95489 48.5033 2.59875 48.7839 2.29523C48.9808 2.08209 49.1373 2.12391 49.2817 2.35728C50.2381 3.90189 50.5834 5.28462 50.9072 6.96279C51.0489 7.69395 50.9693 8.59103 50.9666 9.34243C50.9639 10.083 50.8033 11.0773 50.5969 11.8084C49.8739 14.3729 48.6004 16.913 46.8089 18.9136C46.7667 18.9608 46.7394 19.0194 46.7305 19.0821C46.7216 19.1448 46.7315 19.2087 46.759 19.2657C47.8328 21.5118 48.1431 24.2476 48.1809 26.7271C48.193 27.4879 48.0109 30.0874 48.39 30.596C48.9431 31.338 49.43 32.1213 49.8509 32.946C50.1531 33.5395 50.1437 34.0508 49.7376 34.6174C49.3122 35.2127 48.8194 35.7483 48.2591 36.2241C47.6075 36.7785 48.6085 39.3133 48.9538 39.9487C48.9745 39.9864 48.9772 40.0255 48.9619 40.066C48.7434 40.6407 48.0999 40.8619 47.6413 41.1803C47.6017 41.2073 47.5905 41.2433 47.6075 41.2882C47.7352 41.6102 47.8378 41.9353 47.9151 42.2635C48.1431 43.2375 48.4115 44.1508 48.7879 45.0668C48.8118 45.1248 48.8151 45.1891 48.7971 45.2489C48.7792 45.3087 48.7411 45.3601 48.6894 45.3946C48.1121 45.7831 47.4978 46.0974 46.8467 46.3375C46.8002 46.3546 46.7619 46.3886 46.7391 46.4328C46.7164 46.477 46.711 46.5282 46.7239 46.5763C47.0657 47.8147 47.5158 49.0135 48.0743 50.1728C48.0967 50.2195 48.0998 50.2732 48.0828 50.3222C48.0659 50.3712 48.0304 50.4115 47.9839 50.4345C46.8256 51.0154 45.6416 51.4791 44.432 51.8253C43.9787 51.9548 43.4108 52.0303 42.8982 52.1774C42.6553 52.2462 42.31 52.2071 42.0335 52.3541C42.0093 52.367 41.9905 52.3881 41.9804 52.4135C41.9703 52.4389 41.9695 52.4671 41.9781 52.4931L42.1818 53.0974C42.1917 53.1262 42.1916 53.1575 42.1816 53.1863C42.1715 53.215 42.1522 53.2396 42.1265 53.2561C42.1009 53.2725 42.0705 53.2799 42.0402 53.2771C42.0099 53.2743 41.9814 53.2613 41.9593 53.2404L41.2348 52.5565C41.2043 52.5277 41.1651 52.5109 41.1242 52.5092C40.8931 52.5002 40.7478 52.5038 40.6885 52.52C40.0751 52.6918 39.4497 52.7772 38.812 52.7763C38.6304 52.7763 38.4617 52.7907 38.3061 52.8195C37.2769 53.0097 36.0911 52.9139 35.0456 52.9126C35.027 52.9126 35.0086 52.9166 34.9917 52.9243C34.9748 52.932 34.9597 52.9432 34.9476 52.9571C34.9354 52.9711 34.9264 52.9875 34.9212 53.0051C34.916 53.0228 34.9147 53.0414 34.9175 53.0596C34.9201 53.0785 34.9255 53.1055 34.9336 53.1406C34.9408 53.1667 34.953 53.1909 34.9701 53.2134C36.6779 55.4069 37.436 59.0627 36.9194 61.8039C36.9104 61.848 36.9189 61.888 36.945 61.9239C37.0286 62.0436 37.1186 62.129 37.2148 62.1803C38.7189 62.9856 39.96 63.6979 41.0379 64.7933C41.2281 64.9862 41.4197 65.0388 41.6733 64.8972C42.8469 64.2397 44.0898 63.751 45.4019 63.4308C45.6205 63.3777 46.1191 63.3732 46.898 63.4173C46.942 63.42 46.9672 63.4429 46.9735 63.4861C47.0963 64.4102 46.3354 66.3824 45.7581 67.3294C45.4766 67.7917 45.3327 68.0282 45.3264 68.039C44.4158 69.6443 42.9386 71.027 41.448 72.144C41.4271 72.1596 41.4125 72.1824 41.4071 72.2079C41.4016 72.2335 41.4056 72.2601 41.4183 72.2829L42.1724 73.6239C42.1837 73.6437 42.1896 73.6662 42.1895 73.6891C42.1895 73.712 42.1834 73.7344 42.1719 73.7542C42.1605 73.774 42.144 73.7904 42.1242 73.8019C42.1044 73.8133 42.082 73.8194 42.0591 73.8195C40.5833 73.824 39.0814 73.8231 37.5534 73.8168C37.3187 73.8154 36.9976 73.6886 36.7157 73.6886C34.8001 73.685 32.8841 73.6841 30.9676 73.6859C30.7099 73.6859 30.3915 73.5551 30.0961 73.5537C28.8892 73.5501 27.6823 73.5497 26.4754 73.5524C25.929 73.5537 24.8404 73.6549 24.008 73.5659C21.739 73.3257 19.3014 73.4917 17.0202 73.4579ZM40.2878 19.7986C41.4732 18.178 42.247 16.3779 42.6095 14.3985C42.6176 14.3526 42.6126 14.3086 42.5946 14.2663C41.3144 11.2796 37.0138 9.3856 34.1323 8.54247C34.0847 8.52808 34.0698 8.54427 34.0878 8.59103C36.0263 13.4893 36.7143 18.9028 36.6307 24.1437C36.6307 24.1635 36.6185 24.1864 36.5943 24.2125C36.5754 24.2323 36.5659 24.2282 36.5659 24.2004C36.3798 16.5326 34.1229 5.93619 26.787 1.77991C26.7482 1.75789 26.7038 1.74715 26.6588 1.74888C26.5428 1.75428 26.4282 1.74214 26.3175 1.77586C23.5404 2.60955 21.4575 4.30929 20.069 6.8751C20.066 6.88044 20.0646 6.88643 20.0647 6.89252C20.0648 6.89861 20.0664 6.90461 20.0695 6.90997C20.0726 6.91534 20.077 6.91989 20.0823 6.92322C20.0876 6.92656 20.0937 6.92856 20.1 6.92906C21.5947 7.02439 23.0957 7.12062 24.603 7.21775C24.8701 7.23528 25.0225 7.31083 25.2289 7.45787C32.523 12.6785 33.4416 23.2669 32.5513 31.346C32.5459 31.3928 32.558 31.4342 32.5877 31.4702C32.844 31.775 33.4187 32.2728 33.8207 31.9868C34.6827 31.3744 35.3883 30.2601 35.9467 29.3792C35.9701 29.3432 36.003 29.3284 36.0452 29.3347C37.9095 29.6117 39.7829 29.8023 41.6652 29.9067C41.6953 29.9086 41.7241 29.9195 41.7477 29.9381C41.7713 29.9567 41.7886 29.9819 41.7974 30.0105C42.4584 32.1568 42.8806 34.6336 42.6769 36.881C42.5811 37.9494 42.4935 39.1649 41.8257 40.0606C41.5892 40.3781 41.3446 40.6906 41.0918 40.9982C41.0754 41.0181 41.0668 41.0433 41.0675 41.0691C41.0683 41.0949 41.0783 41.1196 41.0959 41.1385L41.3765 41.442C41.3954 41.4622 41.4209 41.4751 41.4485 41.4783C41.4762 41.4815 41.5042 41.4749 41.5276 41.4595C42.2893 40.9586 43.0173 40.4154 43.7116 39.8299C44.7814 38.9288 45.4343 38.3487 45.4869 37.0186C45.5373 35.7793 45.4995 34.5423 45.3736 33.3075C45.3691 33.2688 45.3857 33.2446 45.4235 33.2347C45.4613 33.2248 45.4869 33.2436 45.5004 33.2913C45.6893 33.9298 45.857 34.7141 46.0036 35.644C46.0108 35.6854 46.035 35.7105 46.0764 35.7195C46.7734 35.858 47.2793 35.8891 47.594 35.8126C48.4183 35.6116 49.0469 34.5041 49.4273 33.7635C49.716 33.1996 47.9745 31.1693 47.5603 30.7309C47.5288 30.6976 47.514 30.6581 47.5158 30.6122C47.6655 27.268 47.7627 22.9836 46.2747 19.893C46.254 19.8489 46.2244 19.8422 46.1857 19.8728C44.6577 21.0779 43.0043 22.0874 41.2254 22.9013C41.2229 22.9027 41.2199 22.9031 41.2171 22.9023C41.2144 22.9016 41.212 22.8997 41.2106 22.8972C41.2091 22.8947 41.2087 22.8918 41.2095 22.889C41.2103 22.8862 41.2121 22.8838 41.2146 22.8824C47.5738 18.602 52.0201 11.4212 49.055 3.60376C49.0352 3.5525 49.002 3.54081 48.9552 3.56869C48.8536 3.62805 48.7569 3.71708 48.6652 3.83579C47.8315 4.9159 47.2082 5.74329 46.7954 6.31796C46.7829 6.33513 46.7666 6.34909 46.7479 6.3587C46.7291 6.36832 46.7084 6.37331 46.6875 6.37327C43.7899 6.38541 39.9519 6.82654 37.7922 9.06319C37.758 9.09736 37.7625 9.12614 37.8057 9.14952C40.0261 10.3218 42.2506 11.9878 43.369 14.3041C43.3896 14.3463 43.3964 14.3904 43.3892 14.4363C43.0762 16.5245 41.7785 18.3673 40.2959 19.8053C40.295 19.8061 40.2938 19.8065 40.2925 19.8064C40.2913 19.8064 40.2901 19.806 40.2892 19.8052C40.2882 19.8044 40.2876 19.8033 40.2873 19.8021C40.2871 19.8009 40.2873 19.7997 40.2878 19.7986ZM26.8545 38.829L26.1489 36.1714C26.1111 35.5698 25.8872 35.269 25.2572 35.2231C24.536 35.17 23.812 35.1273 23.0853 35.0949C23.076 35.0946 23.0667 35.0961 23.058 35.0994C23.0492 35.1026 23.0412 35.1076 23.0345 35.114C23.0277 35.1204 23.0222 35.1281 23.0185 35.1367C23.0147 35.1452 23.0127 35.1544 23.0125 35.1637C23.0044 36.0136 23.1379 37.1319 22.8155 37.9238C22.808 37.9433 22.7944 37.96 22.7767 37.9713C22.759 37.9826 22.7382 37.9879 22.7173 37.9866C22.6964 37.9852 22.6765 37.9772 22.6604 37.9637C22.6443 37.9503 22.633 37.932 22.628 37.9117C22.3987 37.0177 22.3663 36.1143 22.5309 35.2015C22.5336 35.1865 22.533 35.1711 22.5292 35.1563C22.5255 35.1416 22.5186 35.1277 22.509 35.1158C22.4995 35.1038 22.4875 35.0939 22.4738 35.0869C22.4601 35.0798 22.4451 35.0756 22.4297 35.0747L19.5995 34.9358L17.9159 34.8346C17.8852 34.8329 17.8545 34.8375 17.8257 34.8481C17.7968 34.8587 17.7705 34.8751 17.7482 34.8962C17.726 34.9173 17.7083 34.9427 17.6963 34.9708C17.6843 34.999 17.6783 35.0293 17.6785 35.0599C17.6839 35.8018 17.6758 36.5869 17.9996 37.2695C19.18 39.7544 21.7876 40.5921 24.4006 40.3061C24.6398 40.2801 25.1677 40.2126 25.9843 40.1038C25.2046 40.3736 24.4114 40.5553 23.6047 40.6488C23.566 40.6524 23.5337 40.6686 23.5076 40.6974L22.8506 41.415C22.8182 41.4501 22.8025 41.4919 22.8034 41.5405C22.852 43.6449 22.9477 45.8114 22.7751 47.9105C22.7715 47.9545 22.7899 47.986 22.8304 48.0049C24.9645 48.9672 27.1944 49.5936 29.5201 49.8841C29.7269 49.9102 29.8866 49.9115 29.999 49.8881C32.4794 49.3809 34.8527 48.5427 37.119 47.3736C37.1946 47.3349 37.235 47.2733 37.2404 47.1888L37.5615 41.8427C37.5642 41.8058 37.5494 41.7784 37.517 41.7604C37.119 41.5337 36.8128 41.2329 36.3609 41.125C35.3761 40.8876 34.4952 40.665 33.6588 40.0579C37.4145 41.7482 42.2601 41.3584 41.8109 35.8747C41.8064 35.8234 41.7785 35.7978 41.7272 35.7978L40.5846 35.787L38.0957 35.7856C38.0498 35.7856 38.0256 35.8081 38.0229 35.8531C37.9689 36.7488 37.8079 37.6239 37.5399 38.4782C37.5344 38.4947 37.524 38.509 37.5101 38.5194C37.4962 38.5298 37.4795 38.5356 37.4622 38.5362C37.4449 38.5368 37.4278 38.5321 37.4132 38.5227C37.3987 38.5133 37.3873 38.4997 37.3807 38.4836C37.1676 37.94 37.3038 36.5006 37.3092 35.8598C37.3101 35.8158 37.2886 35.7933 37.2445 35.7924L34.8203 35.7465C34.6593 35.7096 34.5172 35.7033 34.394 35.7276C34.3419 35.7384 34.3131 35.7699 34.3077 35.8221C34.1566 37.2313 33.8099 38.6073 33.2676 39.95L32.9169 40.5409C32.8818 40.5993 32.8975 40.6357 32.9641 40.6501L33.6116 40.7931C33.6449 40.8012 33.662 40.8219 33.6629 40.8552C33.6885 41.8251 32.755 43.1768 32.1237 43.8716C32.095 43.9038 32.0787 43.9454 32.0778 43.9889C32.067 44.8132 32.2262 46.4886 31.7891 47.1645C31.7639 47.2032 31.7284 47.2207 31.6825 47.2171C30.2688 47.0921 28.8609 47.1362 27.4588 47.3493C27.4546 47.3497 27.4504 47.3485 27.447 47.3461C27.4436 47.3436 27.4412 47.34 27.4402 47.3359C27.4393 47.3318 27.4398 47.3275 27.4417 47.3238C27.4436 47.3201 27.4468 47.3171 27.4507 47.3156C28.596 46.8866 29.9545 46.7814 31.1659 46.7072C31.5139 46.6856 31.7041 46.7638 31.723 46.3038C31.7545 45.5196 31.7851 44.7331 31.8147 43.9444C31.8165 43.8994 31.8305 43.8585 31.8566 43.8216C32.4852 42.9623 33.0127 42.2474 33.1557 41.1493C33.1646 41.0845 33.1368 41.0485 33.072 41.0414L32.6727 40.9982C32.6543 40.9961 32.6358 40.9984 32.6187 41.0047C32.6016 41.011 32.5863 41.0213 32.5742 41.0346L32.2586 41.3773C32.2154 41.424 32.1979 41.4155 32.206 41.3516C32.3948 39.8398 32.4146 38.3249 32.2653 36.8068C32.2608 36.7601 32.2383 36.7241 32.1979 36.6989C31.9919 36.5712 31.8075 36.6058 31.6448 36.8028C31.6341 36.8162 31.6258 36.8312 31.6205 36.8473C30.803 39.1343 29.5273 41.1259 27.7934 42.822C27.789 42.8261 27.7832 42.8284 27.7771 42.8286C27.7711 42.8288 27.7652 42.8268 27.7606 42.8231C27.756 42.8194 27.7531 42.8142 27.7524 42.8085C27.7518 42.8028 27.7534 42.797 27.7569 42.7924C29.4243 40.2468 31.1456 35.9313 30.1595 32.8785C28.8483 28.8207 27.131 24.8695 25.3328 21.2096C25.2365 21.0154 25.0918 20.9911 24.8984 21.1368C24.866 21.162 24.8476 21.1948 24.8431 21.2353C24.464 24.9464 23.0192 28.6372 21.3357 32.034C21.306 32.0943 21.3244 32.1262 21.391 32.1298L25.2141 32.3335C25.2386 32.3344 25.2627 32.3273 25.2829 32.3133L27.9485 30.4085C27.9537 30.4048 27.9596 30.4023 27.9658 30.4009C27.972 30.3995 27.9784 30.3994 27.9845 30.4005C27.9907 30.4017 27.9966 30.404 28.0017 30.4075C28.0069 30.4109 28.0113 30.4154 28.0146 30.4206C28.5803 31.2939 29.0218 32.2265 29.3393 33.2185C29.3564 33.2706 29.3546 33.3219 29.3339 33.3723C28.9013 34.4407 28.1774 35.2451 27.162 35.7856C27.1207 35.8072 27.0982 35.8409 27.0946 35.8868L26.8545 38.829ZM17.92 31.9598L20.9175 32.1082C20.9401 32.1095 20.9625 32.1031 20.9808 32.0901C20.9992 32.0771 21.0126 32.0583 21.0187 32.0367C21.65 29.9026 22.0214 27.7415 22.1329 25.5534C22.1572 25.0849 22.1419 24.6145 22.0871 24.1424C22.0846 24.1211 22.0774 24.1007 22.066 24.0826C22.0546 24.0646 22.0393 24.0493 22.0213 24.038C22.0033 24.0267 21.9829 24.0197 21.9618 24.0174C21.9408 24.0152 21.9195 24.0178 21.8996 24.025C21.8555 24.0403 21.806 24.0722 21.7512 24.1208C21.7125 24.1559 21.681 24.2026 21.6567 24.2611C20.5978 26.8889 19.3756 29.4979 17.8984 31.9194C17.8822 31.9446 17.8894 31.958 17.92 31.9598ZM36.7696 32.9487L41.1593 33.1038C41.2249 33.1056 41.2465 33.0759 41.224 33.0148C40.8747 32.0624 39.8602 30.9967 39.1439 30.2938C39.1212 30.2712 39.0911 30.2573 39.0589 30.2547L36.4108 30.0213C36.3712 30.0177 36.3398 30.0321 36.3164 30.0645L35.4948 31.2435C35.4741 31.2732 35.4782 31.2993 35.507 31.3218C36.0322 31.7364 36.4198 32.2553 36.6698 32.8785C36.6779 32.8986 36.6916 32.9159 36.7093 32.9284C36.727 32.9408 36.748 32.9479 36.7696 32.9487ZM47.362 36.5006C46.9726 36.372 46.5814 36.3626 46.1884 36.4723C46.1416 36.4849 46.1173 36.5154 46.1155 36.564C46.0904 37.2448 46.0067 37.918 45.8646 38.5835C45.723 39.2458 43.8492 40.5166 43.1383 40.9847C43.1224 40.9952 43.1091 41.0092 43.0995 41.0256C43.0899 41.0419 43.0843 41.0603 43.083 41.0791L43.0587 41.4919C43.0551 41.5468 43.0807 41.5711 43.1356 41.5648C44.7274 41.3692 46.79 41.0144 48.0622 39.9621C48.1019 39.9291 48.1303 39.8845 48.1434 39.8347C48.1564 39.7848 48.1535 39.7322 48.135 39.6843C47.7582 38.6959 47.532 37.6747 47.4565 36.6207C47.452 36.5595 47.4205 36.5195 47.362 36.5006ZM19.4633 45.3865C19.046 45.0609 18.7006 44.7228 18.4272 44.372C17.5387 43.2344 16.6007 41.924 15.6132 40.441C15.5206 40.3016 15.4095 40.2621 15.28 40.3223C15.2392 40.3411 15.2053 40.3722 15.1832 40.4112C15.1612 40.4502 15.1521 40.4951 15.1572 40.5395C15.284 41.6988 15.4747 42.8468 15.7292 43.9835C15.7414 44.0348 15.7721 44.0799 15.8155 44.1103C17.9128 45.5574 20.1234 46.8029 22.4472 47.8471C22.458 47.8517 22.4696 47.8536 22.4813 47.8527C22.4929 47.8518 22.5041 47.8481 22.5139 47.8418C22.5238 47.8355 22.532 47.827 22.5377 47.8169C22.5435 47.8067 22.5467 47.7953 22.5471 47.7837C22.5795 46.485 22.5826 44.5744 22.5565 42.0518C22.5471 41.2397 22.1694 41.1344 21.6891 40.5773C21.6603 40.5431 21.6239 40.5206 21.5798 40.5098C20.1148 40.1555 18.8989 39.4082 17.9321 38.2678C17.75 38.0547 17.5463 37.9454 17.3831 38.2691C17.3633 38.3069 17.3552 38.3469 17.3588 38.3892C17.5652 40.7419 18.5297 43.2173 19.5024 45.3555C19.532 45.4202 19.519 45.4306 19.4633 45.3865ZM41.05 42.532L40.706 42.5199C40.6842 42.519 40.6629 42.5125 40.6442 42.5009C40.6255 42.4893 40.6101 42.4731 40.5995 42.4538C40.3755 42.0509 40.2127 41.625 40.1111 41.1763C40.1016 41.1335 40.1026 41.089 40.1141 41.0467C40.1256 41.0044 40.1473 40.9655 40.1772 40.9334L40.5765 40.5112C40.5847 40.503 40.5897 40.4921 40.5908 40.4806C40.5919 40.469 40.5888 40.4575 40.5823 40.4479C40.5758 40.4383 40.5661 40.4313 40.5549 40.4281C40.5438 40.4249 40.5319 40.4256 40.5212 40.4303C39.9043 40.6929 39.2702 40.9033 38.6191 41.0616C38.397 41.1155 38.1789 41.2801 37.9649 41.5553C37.8596 41.6902 37.8021 41.8575 37.7922 42.0572C37.7094 43.7389 37.6065 45.4234 37.4833 47.1105C37.4797 47.16 37.5003 47.173 37.5453 47.1496C38.7738 46.4967 39.9348 45.7399 41.0284 44.8793C41.0444 44.8667 41.0573 44.8506 41.0662 44.8324C41.0751 44.8142 41.0797 44.7942 41.0797 44.774L41.0959 42.5806C41.0959 42.5679 41.0911 42.5558 41.0826 42.5467C41.074 42.5376 41.0623 42.5324 41.05 42.532ZM36.9625 41.245C37.3038 41.5405 36.6727 41.1263 37.0302 41.1763C37.0671 41.1816 38.7839 41.0203 37.9824 41.3462L38.0849 41.2909C38.0933 41.2863 38.1 41.2789 38.1037 41.27C38.1075 41.2612 38.1082 41.2513 38.1057 41.242C38.1033 41.2327 38.0977 41.2245 38.09 41.2187C38.0824 41.2129 38.073 41.2098 38.0633 41.21L36.9666 41.2316C36.954 41.2325 36.9526 41.237 36.9625 41.245ZM43.5187 46.4171C45.0593 46.195 46.5144 45.7179 47.8841 44.9858C47.9067 44.9737 47.9239 44.9535 47.9322 44.9292C47.9404 44.9049 47.9392 44.8784 47.9286 44.855C47.4583 43.8207 47.1048 42.7474 46.8683 41.6349C46.8664 41.626 46.8628 41.6176 46.8575 41.6102C46.8522 41.6028 46.8455 41.5965 46.8377 41.5917C46.8299 41.5869 46.8212 41.5838 46.8121 41.5824C46.8029 41.581 46.7936 41.5814 46.7846 41.5836C45.5759 41.8993 44.3515 42.134 43.1113 42.2878C43.0753 42.2923 43.0578 42.3126 43.0587 42.3485C43.092 43.6876 43.2116 45.0191 43.4175 46.3429C43.4265 46.4005 43.4602 46.4252 43.5187 46.4171ZM42.1643 43.9741C41.8648 43.8419 41.6503 43.9197 41.5208 44.2075C41.5016 44.2512 41.4974 44.3 41.5087 44.3464C41.5788 44.6423 41.5262 44.9004 41.3509 45.1207C41.3221 45.1567 41.3077 45.1985 41.3077 45.2462L41.3144 46.6006C41.3153 46.6474 41.3387 46.669 41.3846 46.6654L42.7687 46.5426C42.8316 46.5372 42.8527 46.5048 42.8321 46.4455C42.582 45.7215 42.4188 44.9786 42.3424 44.2169C42.3371 44.1645 42.3178 44.1143 42.2865 44.0717C42.2552 44.029 42.213 43.9953 42.1643 43.9741ZM44.66 49.8557C44.0916 49.1174 43.6145 48.3237 43.2287 47.4748C43.2062 47.4253 43.168 47.4037 43.114 47.41L41.2133 47.6285C41.1728 47.633 41.1534 47.6555 41.1552 47.696C41.2245 48.965 41.3927 50.22 41.6598 51.4611C41.6697 51.5078 41.6984 51.5276 41.7461 51.5204C43.485 51.2614 45.348 50.881 46.8845 49.9826C46.9222 49.9601 46.9335 49.9286 46.9182 49.8881L45.7918 46.919C45.7828 46.8965 45.7661 46.8879 45.7419 46.8933L43.7103 47.3412C43.702 47.3431 43.6941 47.3467 43.6873 47.3516C43.6804 47.3566 43.6745 47.3628 43.6701 47.37C43.6657 47.3772 43.6628 47.3851 43.6616 47.3934C43.6604 47.4016 43.6609 47.4101 43.663 47.4181C43.878 48.2788 44.2202 49.0841 44.6896 49.8342C44.6922 49.8383 44.6931 49.8434 44.6922 49.8484C44.6912 49.8534 44.6884 49.8577 44.6845 49.8606C44.6806 49.8635 44.6758 49.8646 44.6712 49.8637C44.6666 49.8627 44.6625 49.8599 44.66 49.8557ZM32.7712 50.2038L34.135 51.9076C34.1477 51.9232 34.1636 51.9359 34.1815 51.9448C34.1995 51.9536 34.2191 51.9584 34.2389 51.9588C36.2795 52.0065 38.3138 51.9197 40.3418 51.6985C40.3877 51.694 40.3962 51.6738 40.3674 51.6378C39.4546 50.4956 38.6605 49.2766 37.9851 47.9806C37.9764 47.9639 37.9616 47.9512 37.9437 47.9451C37.9259 47.9391 37.9064 47.9402 37.8893 47.9483C36.1905 48.7451 34.4574 49.4591 32.6902 50.0905C32.6818 50.0932 32.6745 50.0985 32.6693 50.1057C32.6641 50.1128 32.6613 50.1214 32.6613 50.1303C32.6613 50.1391 32.6641 50.1477 32.6693 50.1549C32.6745 50.162 32.6818 50.1673 32.6902 50.1701L32.7496 50.189C32.7577 50.1917 32.7649 50.1966 32.7712 50.2038ZM21.0875 53.2687C21.0885 53.2662 21.0901 53.264 21.092 53.2621C21.0939 53.2602 21.0962 53.2587 21.0987 53.2577C21.1012 53.2567 21.1039 53.2562 21.1066 53.2563C21.1093 53.2563 21.112 53.2569 21.1144 53.2579C21.1169 53.259 21.1192 53.2605 21.121 53.2625C21.1229 53.2644 21.1244 53.2667 21.1254 53.2692C21.1264 53.2717 21.1269 53.2744 21.1269 53.2771C21.1269 53.2798 21.1263 53.2824 21.1252 53.2849C20.1252 56.295 20.1904 59.2785 21.3208 62.2356C21.3424 62.2913 21.3784 62.3035 21.4288 62.272C21.927 61.9626 22.4639 61.7517 23.0395 61.6393C23.0934 61.6294 23.1285 61.5979 23.1447 61.5449C23.6016 60.0367 24.3134 58.6612 25.2802 57.4183C25.3073 57.3831 25.3416 57.3539 25.3809 57.3328C25.4202 57.3116 25.4635 57.2989 25.5081 57.2955L28.1279 57.0783C28.1774 57.0738 28.2021 57.0468 28.2021 56.9974V55.067C28.2021 55.0127 28.1841 54.9601 28.1508 54.9172L23.3808 48.933C23.3698 48.919 23.3541 48.9094 23.3364 48.9057C23.3187 48.902 23.3001 48.9045 23.2836 48.9128C18.7415 51.3086 15.3798 55.6996 16.0165 61.0323C16.196 62.5404 16.7032 64.0554 17.3575 65.461C17.3663 65.4793 17.3811 65.4938 17.3993 65.5022C17.4176 65.5106 17.4381 65.5123 17.4573 65.5069L21.4976 64.4183C21.5497 64.4039 21.5659 64.371 21.5461 64.3198C20.2146 60.954 19.2069 56.6493 21.0875 53.2687ZM29.3919 50.8405C27.8738 50.6625 26.4291 50.2389 25.0576 49.5698C25.0566 49.569 25.0555 49.5684 25.0543 49.568C25.0531 49.5676 25.0518 49.5675 25.0506 49.5676C25.0493 49.5678 25.0481 49.5681 25.047 49.5687C25.0459 49.5693 25.0449 49.5701 25.0441 49.5711C25.0433 49.5721 25.0427 49.5732 25.0423 49.5744C25.042 49.5756 25.0418 49.5769 25.042 49.5781C25.0421 49.5794 25.0425 49.5806 25.0431 49.5817C25.0437 49.5828 25.0445 49.5838 25.0454 49.5846L28.7093 54.0768C28.7134 54.082 28.7186 54.086 28.7246 54.0886C28.7306 54.0912 28.7373 54.0923 28.7439 54.0918C28.7505 54.0913 28.757 54.0891 28.7627 54.0856C28.7684 54.082 28.7733 54.0772 28.7768 54.0714L30.8286 50.6125C30.8565 50.564 30.843 50.5464 30.7881 50.5599C30.3443 50.6638 29.8452 50.8931 29.3919 50.8405ZM33.6049 55.8912L35.6958 62.5553C35.7073 62.5928 35.7308 62.6254 35.7626 62.6482C35.7945 62.671 35.833 62.6826 35.8723 62.6814C35.9116 62.6802 35.9495 62.6662 35.9802 62.6414C36.0109 62.6167 36.0328 62.5827 36.0425 62.5445C37.1447 58.0982 35.221 53.6626 32.1358 50.4507C32.0863 50.3994 32.0427 50.4039 32.005 50.4641L29.1167 54.9523C29.0915 54.9919 29.079 55.035 29.079 55.0818V57.0864C29.079 57.1494 29.1104 57.1831 29.1734 57.1876L31.9901 57.3818C32.0369 57.3854 32.0715 57.4075 32.094 57.4479C32.8117 58.7601 33.4084 60.1253 33.8841 61.5435C33.9012 61.5957 33.9363 61.6294 33.9893 61.6447L34.9296 61.9226C34.9916 61.9406 35.015 61.9181 34.9997 61.8551L33.5873 55.8952C33.5875 55.8932 33.5883 55.8913 33.5896 55.8898C33.5909 55.8883 33.5927 55.8873 33.5946 55.8868C33.5966 55.8864 33.5986 55.8865 33.6005 55.8873C33.6023 55.8881 33.6038 55.8895 33.6049 55.8912ZM24.835 61.2805C27.4655 60.9081 29.9828 60.9162 32.5985 61.2832C32.6507 61.2904 32.6772 61.2674 32.6781 61.2144C32.6848 60.4117 31.9092 59.1167 31.4505 58.4611C31.4244 58.4242 31.3894 58.4017 31.3453 58.3936C29.6959 58.0689 28.0447 58.0528 26.3917 58.345C25.9034 58.4314 25.8764 58.6675 25.6336 59.0425C25.1974 59.7179 24.8975 60.4275 24.7338 61.1712C24.7149 61.2566 24.7487 61.2931 24.835 61.2805ZM5.26227 64.5073C7.09557 67.641 10.0175 70.1691 13.4696 71.4182C13.4937 71.4273 13.5203 71.427 13.5442 71.4175C13.5682 71.4081 13.5877 71.39 13.5991 71.367L16.5575 65.546C16.5773 65.5074 16.5764 65.4691 16.5548 65.4314C16.1015 64.6229 15.7922 63.7631 15.6267 62.8521C15.6253 62.8439 15.6218 62.8362 15.6165 62.8298C15.6112 62.8234 15.6042 62.8185 15.5964 62.8156C15.5886 62.8127 15.5802 62.812 15.572 62.8134C15.5638 62.8148 15.5562 62.8184 15.5498 62.8237L11.9304 65.8226C11.8908 65.8549 11.8459 65.8657 11.7955 65.8549L5.30409 64.4506C5.24744 64.4389 5.2335 64.4578 5.26227 64.5073ZM39.4096 68.1267C39.9263 67.6154 41.2429 66.4836 41.6598 67.3537C42.2142 68.5165 41.7583 69.9559 41.39 71.1417C41.3702 71.2055 41.3877 71.2181 41.4426 71.1795C43.7858 69.5215 45.7459 67.0178 46.268 64.1485C46.2699 64.1368 46.2691 64.1248 46.2654 64.1135C46.2618 64.1022 46.2555 64.092 46.2472 64.0838C46.2388 64.0755 46.2286 64.0695 46.2174 64.0662C46.2062 64.0629 46.1944 64.0624 46.183 64.0648C44.4895 64.4066 42.9045 65.0262 41.4277 65.9237C41.3882 65.948 41.3509 65.9449 41.3158 65.9143C40.0032 64.7865 38.5031 63.6574 36.8991 62.9829C36.8515 62.9622 36.8227 62.978 36.8128 63.0301L36.6185 64.0662C36.6117 64.1042 36.6199 64.1434 36.6415 64.1754L39.3071 68.1159C39.3124 68.1241 39.3195 68.131 39.3278 68.1361C39.3361 68.1412 39.3455 68.1444 39.3553 68.1454C39.3651 68.1465 39.3751 68.1453 39.3845 68.1421C39.3939 68.1388 39.4025 68.1336 39.4096 68.1267ZM25.7402 72.7538L30.3254 72.8522C30.3704 72.8531 30.3929 72.8311 30.3929 72.7861C30.3956 70.0557 29.9963 67.3105 29.5309 64.6206C29.5228 64.5711 29.4936 64.5464 29.4432 64.5464H27.8271C27.7722 64.5464 27.7407 64.5734 27.7327 64.6274C27.3378 67.3856 26.657 70.0706 25.6903 72.6823C25.6732 72.729 25.6898 72.7529 25.7402 72.7538ZM30.9257 72.8657L34.6139 72.9318C34.6652 72.9327 34.685 72.908 34.6733 72.8576C34.5501 72.3279 34.4183 71.8836 34.278 71.5248C33.4201 69.325 32.3948 67.0344 31.2023 64.653C31.1825 64.6134 31.1501 64.5927 31.1052 64.5909L30.0597 64.5451C30.0488 64.5447 30.0379 64.5467 30.0279 64.5511C30.0178 64.5555 30.0089 64.5621 30.0018 64.5704C29.9947 64.5787 29.9895 64.5885 29.9867 64.599C29.9839 64.6096 29.9835 64.6207 29.9855 64.6314C30.4433 67.3366 30.7337 70.0593 30.8569 72.7996C30.8587 72.8437 30.8817 72.8657 30.9257 72.8657ZM20.8284 72.6445L25.1601 72.7524C25.2195 72.7533 25.259 72.7259 25.2788 72.6701C26.188 70.0683 26.8603 67.4063 27.2956 64.684C27.2978 64.6696 27.2968 64.655 27.2927 64.641C27.2887 64.6271 27.2816 64.6143 27.2721 64.6034C27.2625 64.5926 27.2507 64.584 27.2376 64.5784C27.2244 64.5727 27.2101 64.5701 27.1957 64.5707C25.3746 64.6341 23.5494 64.7757 21.7552 65.2803C20.1715 65.7263 18.5904 66.189 17.0121 66.6684C16.9912 66.6751 16.9722 66.6865 16.9565 66.7017C16.9408 66.7169 16.9289 66.7355 16.9217 66.7561C16.2499 68.7432 15.1923 70.59 14.1064 72.3747C14.083 72.4125 14.0933 72.4318 14.1374 72.4327L18.5945 72.5743C18.6058 72.5749 18.617 72.5725 18.6271 72.5674C18.6372 72.5624 18.6459 72.5549 18.6522 72.5455C18.6586 72.5362 18.6624 72.5254 18.6634 72.5141C18.6644 72.5029 18.6625 72.4916 18.6579 72.4813C17.8957 70.8031 17.3817 68.7 18.5378 67.1473C18.733 66.8847 18.9538 66.7273 19.2002 66.6751C20.4871 66.4013 20.9755 68.9158 20.9728 69.8089C20.9692 70.96 20.9049 71.885 20.7799 72.5838C20.7727 72.6234 20.7889 72.6436 20.8284 72.6445ZM35.1859 72.9655L37.9149 73.0182C37.9707 73.02 37.9887 72.9943 37.9689 72.9413C37.5723 71.8702 38.3223 69.8682 38.7743 68.8605C38.7871 68.8317 38.7924 68.8001 38.7899 68.7687C38.7873 68.7374 38.7768 68.7072 38.7594 68.6811C37.9887 67.5237 37.2193 66.3725 36.4513 65.2277C36.3865 65.1314 36.2669 65.0712 36.0924 65.0469C34.4556 64.8239 33.019 64.6773 31.7824 64.6071C31.7257 64.6044 31.7095 64.6287 31.7338 64.68C32.9816 67.3308 34.2888 70.0814 35.0996 72.8994C35.105 72.9182 35.1164 72.9348 35.1319 72.9467C35.1474 72.9586 35.1663 72.9652 35.1859 72.9655ZM39.9344 73.2273C39.9294 73.2335 39.9262 73.241 39.9252 73.249C39.9243 73.257 39.9255 73.2651 39.9289 73.2723C39.9322 73.2796 39.9376 73.2858 39.9443 73.2903C39.951 73.2947 39.9588 73.2972 39.9668 73.2974L41.0608 73.3325C41.069 73.3328 41.077 73.3308 41.0841 73.3268C41.0911 73.3227 41.0969 73.3167 41.1007 73.3095C41.1045 73.3023 41.1062 73.2942 41.1056 73.2861C41.105 73.278 41.1021 73.2702 41.0972 73.2637L40.5725 72.5312C40.5687 72.5257 40.5636 72.5212 40.5578 72.518C40.5519 72.5148 40.5454 72.513 40.5388 72.5127C40.5321 72.5124 40.5254 72.5137 40.5194 72.5165C40.5133 72.5192 40.5079 72.5233 40.5037 72.5285L39.9344 73.2273Z" fill="black"/>
<path d="M40.2962 19.8051C41.7788 18.3671 43.0765 16.5244 43.3895 14.4361C43.3967 14.3902 43.3899 14.3462 43.3692 14.3039C42.2509 11.9877 40.0264 10.3216 37.806 9.14936C37.7628 9.12597 37.7583 9.09719 37.7925 9.06302C39.9522 6.82637 43.7901 6.38524 46.6878 6.3731C46.7087 6.37314 46.7294 6.36815 46.7481 6.35854C46.7669 6.34892 46.7832 6.33496 46.7957 6.31779C47.2085 5.74312 47.8318 4.91573 48.6654 3.83563C48.7572 3.71691 48.8539 3.62788 48.9555 3.56852C49.0022 3.54064 49.0355 3.55234 49.0553 3.6036C52.0204 11.4211 47.5741 18.6018 41.2149 22.8822C41.2124 22.8837 41.2106 22.886 41.2098 22.8888C41.209 22.8916 41.2094 22.8946 41.2108 22.8971C41.2123 22.8996 41.2146 22.9014 41.2174 22.9022C41.2202 22.9029 41.2232 22.9025 41.2257 22.9011C43.0046 22.0872 44.658 21.0777 46.186 19.8726C46.2246 19.842 46.2543 19.8488 46.275 19.8928C47.763 22.9834 47.6658 27.2678 47.5161 30.612C47.5143 30.6579 47.5291 30.6975 47.5606 30.7307C47.9748 31.1692 49.7163 33.1994 49.4276 33.7633C49.0472 34.5039 48.4186 35.6114 47.5943 35.8124C47.2796 35.8889 46.7737 35.8579 46.0767 35.7194C46.0353 35.7104 46.0111 35.6852 46.0039 35.6438C45.8573 34.7139 45.6895 33.9297 45.5007 33.2911C45.4872 33.2435 45.4616 33.2246 45.4238 33.2345C45.386 33.2444 45.3694 33.2687 45.3739 33.3073C45.4998 34.5421 45.5376 35.7792 45.4872 37.0184C45.4346 38.3486 44.7817 38.9286 43.7119 39.8298C43.0176 40.4152 42.2896 40.9584 41.5279 41.4594C41.5044 41.4747 41.4764 41.4814 41.4488 41.4781C41.4212 41.4749 41.3956 41.4621 41.3768 41.4418L41.0962 41.1383C41.0786 41.1194 41.0685 41.0947 41.0678 41.0689C41.0671 41.0431 41.0757 41.0179 41.0921 40.998C41.3448 40.6904 41.5895 40.3779 41.826 40.0605C42.4937 39.1647 42.5814 37.9493 42.6772 36.8809C42.8809 34.6334 42.4587 32.1566 41.7977 30.0104C41.7889 29.9818 41.7716 29.9565 41.748 29.9379C41.7243 29.9194 41.6956 29.9084 41.6655 29.9065C39.7831 29.8022 37.9098 29.6115 36.0455 29.3345C36.0032 29.3282 35.9704 29.3431 35.947 29.379C35.3885 30.2599 34.683 31.3742 33.821 31.9867C33.419 32.2726 32.8443 31.7749 32.588 31.47C32.5583 31.434 32.5462 31.3926 32.5516 31.3459C33.4419 23.2667 32.5232 12.6784 25.2292 7.4577C25.0228 7.31066 24.8703 7.23512 24.6032 7.21758C23.096 7.12045 21.595 7.02422 20.1003 6.92889C20.094 6.9284 20.0879 6.92639 20.0826 6.92306C20.0773 6.91972 20.0729 6.91517 20.0698 6.90981C20.0667 6.90444 20.065 6.89844 20.0649 6.89235C20.0648 6.88626 20.0663 6.88027 20.0692 6.87493C21.4578 4.30913 23.5407 2.60938 26.3178 1.7757C26.4284 1.74197 26.5431 1.75411 26.6591 1.74872C26.7041 1.74698 26.7485 1.75773 26.7873 1.77974C34.1232 5.93603 36.3801 16.5325 36.5662 24.2002C36.5662 24.2281 36.5757 24.2321 36.5945 24.2123C36.6188 24.1863 36.631 24.1633 36.631 24.1435C36.7146 18.9027 36.0266 13.4891 34.0881 8.59087C34.0701 8.5441 34.0849 8.52791 34.1326 8.5423C37.0141 9.38543 41.3147 11.2794 42.5949 14.2661C42.6129 14.3084 42.6179 14.3525 42.6098 14.3983C42.2473 16.3778 41.4734 18.1778 40.2881 19.7984C40.2876 19.7995 40.2874 19.8007 40.2876 19.8019C40.2879 19.8031 40.2885 19.8042 40.2895 19.805C40.2904 19.8058 40.2916 19.8062 40.2928 19.8063C40.294 19.8063 40.2952 19.8059 40.2962 19.8051Z" fill="white"/>
<path d="M33.2675 39.9499C33.4581 39.9651 33.5885 40.0011 33.6587 40.0578C34.495 40.6648 35.3759 40.8874 36.3607 41.1248C36.8126 41.2328 37.1189 41.5336 37.5168 41.7602C37.5492 41.7782 37.564 41.8056 37.5613 41.8425L37.2403 47.1886C37.2349 47.2731 37.1944 47.3348 37.1189 47.3734C34.8525 48.5426 32.4792 49.3807 29.9988 49.888C29.8864 49.9113 29.7268 49.91 29.5199 49.8839C27.1942 49.5934 24.9643 48.967 22.8302 48.0048C22.7897 47.9859 22.7713 47.9544 22.7749 47.9103C22.9476 45.8113 22.8518 43.6448 22.8032 41.5403C22.8023 41.4918 22.8181 41.4499 22.8504 41.4149L23.5074 40.6972C23.5335 40.6684 23.5659 40.6522 23.6045 40.6486C24.4112 40.5551 25.2045 40.3734 25.9842 40.1036C26.4716 39.8158 26.7617 39.3909 26.8543 38.8288L27.0944 35.8866C27.098 35.8408 27.1205 35.8071 27.1619 35.7855C28.1772 35.245 28.9012 34.4405 29.3338 33.3721C29.3544 33.3217 29.3562 33.2705 29.3392 33.2183C29.0217 32.2263 28.5801 31.2937 28.0144 30.4205C28.0111 30.4153 28.0067 30.4108 28.0016 30.4073C27.9964 30.4039 27.9905 30.4015 27.9844 30.4004C27.9782 30.3993 27.9718 30.3994 27.9656 30.4007C27.9594 30.4021 27.9535 30.4047 27.9483 30.4083L25.2827 32.3131C25.2626 32.3271 25.2384 32.3342 25.2139 32.3334L21.3908 32.1297C21.3243 32.1261 21.3058 32.0941 21.3355 32.0339C23.0191 28.6371 24.4638 24.9462 24.8429 21.2351C24.8474 21.1946 24.8659 21.1618 24.8982 21.1366C25.0916 20.9909 25.2364 21.0152 25.3326 21.2095C27.1308 24.8693 28.8481 28.8206 30.1593 32.8784C31.1455 35.9312 29.4241 40.2466 27.7568 42.7922C27.7532 42.7969 27.7516 42.8026 27.7523 42.8083C27.753 42.814 27.7559 42.8192 27.7604 42.8229C27.765 42.8267 27.7709 42.8286 27.777 42.8284C27.783 42.8282 27.7888 42.8259 27.7932 42.8219C29.5271 41.1257 30.8028 39.1342 31.6203 36.8471C31.6257 36.8311 31.6339 36.816 31.6446 36.8026C31.8074 36.6057 31.9917 36.571 32.1977 36.6987C32.2382 36.7239 32.2606 36.7599 32.2651 36.8067C32.4144 38.3247 32.3946 39.8397 32.2058 41.3515C32.1977 41.4153 32.2152 41.4239 32.2584 41.3771L32.5741 41.0344C32.5862 41.0211 32.6014 41.0109 32.6185 41.0045C32.6356 40.9982 32.6541 40.996 32.6725 40.998L33.0718 41.0412C33.1366 41.0484 33.1645 41.0844 33.1555 41.1491C33.0125 42.2472 32.485 42.9622 31.8564 43.8215C31.8303 43.8584 31.8164 43.8993 31.8146 43.9443C31.7849 44.733 31.7543 45.5194 31.7228 46.3037C31.704 46.7637 31.5137 46.6854 31.1657 46.707C29.9543 46.7812 28.5958 46.8864 27.4505 47.3154C27.4467 47.317 27.4435 47.3199 27.4415 47.3236C27.4396 47.3274 27.4391 47.3317 27.4401 47.3358C27.4411 47.3398 27.4435 47.3434 27.4469 47.3459C27.4503 47.3483 27.4545 47.3495 27.4586 47.3491C28.8607 47.136 30.2686 47.0919 31.6824 47.2169C31.7282 47.2205 31.7638 47.203 31.7889 47.1643C32.226 46.4885 32.0668 44.813 32.0776 43.9888C32.0786 43.9452 32.0948 43.9036 32.1235 43.8714C32.7548 43.1767 33.6883 41.825 33.6627 40.855C33.6618 40.8218 33.6447 40.8011 33.6115 40.793L32.9639 40.65C32.8974 40.6356 32.8816 40.5992 32.9167 40.5407L33.2675 39.9499Z" fill="#E5E1DE"/>
<path d="M20.9176 32.1082L17.9201 31.9598C17.8895 31.958 17.8824 31.9445 17.8985 31.9193C19.3757 29.4979 20.5979 26.8889 21.6569 24.261C21.6812 24.2026 21.7126 24.1558 21.7513 24.1207C21.8062 24.0722 21.8556 24.0403 21.8997 24.025C21.9196 24.0177 21.9409 24.0151 21.962 24.0174C21.9831 24.0196 22.0034 24.0267 22.0214 24.038C22.0395 24.0493 22.0548 24.0645 22.0662 24.0826C22.0775 24.1007 22.0847 24.1211 22.0872 24.1423C22.1421 24.6145 22.1574 25.0848 22.1331 25.5534C22.0216 27.7415 21.6501 29.9026 21.0188 32.0367C21.0127 32.0582 20.9994 32.077 20.981 32.09C20.9626 32.103 20.9402 32.1094 20.9176 32.1082Z" fill="#E5E1DE"/>
<path d="M41.1594 33.104L36.7697 32.9489C36.7481 32.9481 36.7271 32.941 36.7094 32.9286C36.6917 32.9161 36.678 32.8988 36.6699 32.8787C36.4199 32.2555 36.0323 31.7366 35.507 31.322C35.4783 31.2995 35.4742 31.2734 35.4949 31.2437L36.3165 30.0647C36.3398 30.0323 36.3713 30.0179 36.4109 30.0215L39.059 30.2549C39.0912 30.2575 39.1213 30.2714 39.144 30.294C39.8603 30.9969 40.8747 32.0626 41.2241 33.015C41.2466 33.0761 41.225 33.1058 41.1594 33.104Z" fill="#E5E1DE"/>
<path d="M19.5997 34.936C19.4135 36.6735 19.8655 38.9021 21.7298 39.4295C23.8261 40.0231 25.7107 38.8306 25.6608 36.4604C25.6599 36.4172 25.6788 36.3866 25.7174 36.3686L26.1491 36.1717L26.8546 38.8292C26.762 39.3913 26.472 39.8162 25.9845 40.104C25.1679 40.2128 24.64 40.2803 24.4008 40.3064C21.7878 40.5924 19.1802 39.7546 17.9998 37.2698C17.676 36.5872 17.6841 35.802 17.6787 35.0601C17.6785 35.0295 17.6845 34.9992 17.6965 34.9711C17.7085 34.9429 17.7262 34.9175 17.7484 34.8964C17.7707 34.8753 17.797 34.8589 17.8259 34.8483C17.8547 34.8378 17.8854 34.8331 17.9161 34.8348L19.5997 34.936Z" fill="white"/>
<path d="M26.1491 36.1717L25.7174 36.3687C25.6787 36.3867 25.6598 36.4172 25.6607 36.4604C25.7106 38.8306 23.8261 40.0231 21.7297 39.4296C19.8654 38.9021 19.4135 36.6736 19.5996 34.936L22.4299 35.075C22.4452 35.0759 22.4603 35.0801 22.4739 35.0871C22.4876 35.0942 22.4996 35.1041 22.5092 35.116C22.5187 35.128 22.5256 35.1419 22.5294 35.1566C22.5331 35.1714 22.5337 35.1868 22.531 35.2018C22.3664 36.1146 22.3988 37.018 22.6282 37.9119C22.6331 37.9323 22.6445 37.9505 22.6605 37.964C22.6766 37.9775 22.6965 37.9855 22.7175 37.9868C22.7384 37.9882 22.7592 37.9828 22.7768 37.9715C22.7945 37.9603 22.8081 37.9436 22.8157 37.9241C23.1381 37.1322 23.0045 36.0139 23.0126 35.164C23.0128 35.1547 23.0148 35.1455 23.0186 35.137C23.0224 35.1284 23.0278 35.1207 23.0346 35.1143C23.0414 35.1079 23.0494 35.1029 23.0581 35.0996C23.0668 35.0964 23.0761 35.0949 23.0855 35.0952C23.8121 35.1276 24.5361 35.1703 25.2574 35.2234C25.8874 35.2692 26.1113 35.5701 26.1491 36.1717Z" fill="#588767"/>
<path d="M34.8203 35.7467C34.4898 37.4127 34.9053 39.8005 36.8816 40.189C39.6929 40.7394 40.6534 38.0292 40.5846 35.7872L41.7272 35.798C41.7785 35.798 41.8063 35.8236 41.8108 35.8749C42.26 41.3586 37.4144 41.7485 33.6588 40.0581C33.5886 40.0015 33.4582 39.9655 33.2676 39.9502C33.8099 38.6075 34.1566 37.2315 34.3077 35.8223C34.3131 35.7701 34.3418 35.7386 34.394 35.7278C34.5172 35.7036 34.6593 35.7099 34.8203 35.7467Z" fill="white"/>
<path d="M34.82 35.7466L37.2442 35.7924C37.2883 35.7933 37.3099 35.8158 37.309 35.8599C37.3036 36.5007 37.1673 37.9401 37.3805 38.4837C37.3871 38.4997 37.3984 38.5134 37.413 38.5228C37.4275 38.5322 37.4446 38.5369 37.4619 38.5363C37.4792 38.5357 37.496 38.5298 37.5099 38.5195C37.5237 38.5091 37.5341 38.4948 37.5396 38.4783C37.8076 37.6239 37.9686 36.7489 38.0226 35.8532C38.0253 35.8082 38.0496 35.7857 38.0954 35.7857L40.5843 35.7871C40.6531 38.0291 39.6926 40.7392 36.8813 40.1889C34.905 39.8003 34.4895 37.4126 34.82 35.7466Z" fill="#588767"/>
<path d="M47.3618 36.5006C47.4202 36.5195 47.4517 36.5595 47.4562 36.6206C47.5317 37.6747 47.7579 38.6959 48.1347 39.6842C48.1533 39.7322 48.1562 39.7848 48.1431 39.8347C48.13 39.8845 48.1016 39.9291 48.0619 39.9621C46.7898 41.0144 44.7272 41.3691 43.1353 41.5647C43.0805 41.571 43.0548 41.5468 43.0584 41.4919L43.0827 41.0791C43.084 41.0603 43.0897 41.0419 43.0993 41.0255C43.1089 41.0092 43.1221 40.9952 43.138 40.9847C43.849 40.5166 45.7227 39.2458 45.8644 38.5834C46.0065 37.9179 46.0901 37.2448 46.1153 36.564C46.1171 36.5154 46.1414 36.4848 46.1881 36.4723C46.5811 36.3625 46.9723 36.372 47.3618 36.5006Z" fill="white"/>
<path d="M19.5023 45.3553C18.5297 43.2171 17.5651 40.7417 17.3587 38.389C17.3551 38.3467 17.3632 38.3067 17.383 38.2689C17.5462 37.9452 17.7499 38.0545 17.9321 38.2676C18.8988 39.408 20.1148 40.1553 21.5798 40.5096C21.6238 40.5204 21.6603 40.5429 21.689 40.5771C22.1693 41.1342 22.547 41.2395 22.5564 42.0516C22.5825 44.5742 22.5794 46.4848 22.547 47.7835C22.5466 47.7951 22.5434 47.8065 22.5377 47.8167C22.5319 47.8268 22.5237 47.8354 22.5139 47.8416C22.504 47.8479 22.4928 47.8516 22.4812 47.8525C22.4696 47.8534 22.4579 47.8515 22.4472 47.8469C20.1233 46.8028 17.9127 45.5572 15.8155 44.1101C15.772 44.0797 15.7413 44.0346 15.7291 43.9833C15.4746 42.8466 15.284 41.6986 15.1572 40.5393C15.152 40.4949 15.1611 40.45 15.1832 40.411C15.2052 40.372 15.2391 40.3409 15.2799 40.3221C15.4094 40.2619 15.5205 40.3014 15.6131 40.4408C16.6006 41.9239 17.5386 43.2342 18.4271 44.3718C18.7005 44.7226 19.0459 45.0607 19.4632 45.3863C19.5189 45.4304 19.532 45.42 19.5023 45.3553Z" fill="#E5E1DE"/>
<path d="M41.0501 42.5321C41.0624 42.5325 41.074 42.5378 41.0826 42.5468C41.0912 42.5559 41.096 42.5681 41.0959 42.5807L41.0798 44.7742C41.0798 44.7944 41.0751 44.8143 41.0663 44.8326C41.0574 44.8508 41.0445 44.8668 41.0285 44.8794C39.9349 45.7401 38.7739 46.4969 37.5454 47.1498C37.5004 47.1732 37.4797 47.1601 37.4833 47.1107C37.6065 45.4235 37.7095 43.7391 37.7922 42.0573C37.8021 41.8576 37.8597 41.6904 37.9649 41.5555C38.1789 41.2803 38.397 41.1157 38.6192 41.0617C39.2703 40.9034 39.9043 40.693 40.5213 40.4304C40.5319 40.4258 40.5438 40.425 40.555 40.4282C40.5661 40.4314 40.5758 40.4384 40.5824 40.448C40.5889 40.4576 40.5919 40.4692 40.5909 40.4807C40.5898 40.4923 40.5848 40.5031 40.5766 40.5113L40.1773 40.9336C40.1474 40.9656 40.1257 41.0045 40.1142 41.0468C40.1027 41.0891 40.1016 41.1336 40.1112 41.1764C40.2128 41.6252 40.3756 42.051 40.5995 42.4539C40.6102 42.4732 40.6256 42.4895 40.6443 42.5011C40.6629 42.5126 40.6842 42.5192 40.7061 42.52L41.0501 42.5321Z" fill="#E5E1DE"/>
<path d="M43.5186 46.4171C43.4602 46.4252 43.4265 46.4005 43.4175 46.3429C43.2115 45.0191 43.0919 43.6876 43.0586 42.3485C43.0577 42.3125 43.0753 42.2923 43.1112 42.2878C44.3514 42.134 45.5759 41.8993 46.7846 41.5836C46.7936 41.5814 46.8029 41.5809 46.812 41.5823C46.8211 41.5837 46.8298 41.5869 46.8376 41.5917C46.8455 41.5965 46.8522 41.6028 46.8574 41.6102C46.8627 41.6176 46.8664 41.626 46.8682 41.6349C47.1047 42.7474 47.4582 43.8207 47.9285 44.855C47.9391 44.8783 47.9404 44.9049 47.9321 44.9292C47.9238 44.9535 47.9066 44.9737 47.884 44.9858C46.5143 45.7179 45.0592 46.195 43.5186 46.4171Z" fill="white"/>
<path d="M42.1642 43.974C42.2129 43.9953 42.2551 44.0289 42.2864 44.0716C42.3177 44.1143 42.337 44.1644 42.3423 44.2169C42.4187 44.9786 42.582 45.7215 42.832 46.4454C42.8527 46.5048 42.8315 46.5372 42.7686 46.5425L41.3845 46.6653C41.3386 46.6689 41.3153 46.6473 41.3144 46.6006L41.3076 45.2462C41.3076 45.1985 41.322 45.1567 41.3508 45.1207C41.5262 44.9004 41.5788 44.6423 41.5086 44.3464C41.4973 44.3 41.5015 44.2511 41.5208 44.2074C41.6503 43.9196 41.8648 43.8418 42.1642 43.974Z" fill="white"/>
<path d="M44.6898 49.834C44.2203 49.084 43.8781 48.2786 43.6632 47.4179C43.661 47.4099 43.6605 47.4015 43.6617 47.3932C43.663 47.3849 43.6659 47.377 43.6703 47.3698C43.6747 47.3626 43.6805 47.3564 43.6874 47.3515C43.6943 47.3465 43.7021 47.343 43.7104 47.341L45.742 46.8932C45.7663 46.8878 45.7829 46.8963 45.7919 46.9188L46.9183 49.888C46.9336 49.9284 46.9224 49.9599 46.8846 49.9824C45.3481 50.8808 43.4851 51.2612 41.7463 51.5203C41.6986 51.5274 41.6698 51.5077 41.6599 51.4609C41.3928 50.2198 41.2246 48.9648 41.1554 47.6958C41.1536 47.6554 41.1729 47.6329 41.2134 47.6284L43.1141 47.4098C43.1681 47.4035 43.2063 47.4251 43.2288 47.4746C43.6146 48.3236 44.0917 49.1172 44.6601 49.8556C44.6627 49.8597 44.6667 49.8626 44.6713 49.8635C44.6759 49.8644 44.6807 49.8633 44.6846 49.8604C44.6886 49.8576 44.6913 49.8532 44.6923 49.8482C44.6933 49.8433 44.6924 49.8381 44.6898 49.834Z" fill="white"/>
<path d="M32.7495 50.1891L32.6901 50.1702C32.6817 50.1675 32.6743 50.1622 32.6691 50.155C32.6639 50.1479 32.6611 50.1392 32.6611 50.1304C32.6611 50.1215 32.6639 50.1129 32.6691 50.1058C32.6743 50.0986 32.6817 50.0933 32.6901 50.0906C34.4573 49.4593 36.1903 48.7452 37.8892 47.9484C37.9062 47.9403 37.9257 47.9392 37.9436 47.9452C37.9614 47.9513 37.9763 47.964 37.9849 47.9808C38.6603 49.2767 39.4545 50.4957 40.3673 51.6379C40.3961 51.6739 40.3875 51.6941 40.3417 51.6986C38.3137 51.9198 36.2794 52.0066 34.2388 51.959C34.2189 51.9586 34.1993 51.9538 34.1814 51.9449C34.1635 51.9361 34.1476 51.9234 34.1349 51.9077L32.771 50.2039C32.7647 50.1967 32.7575 50.1918 32.7495 50.1891Z" fill="white"/>
<path d="M21.7311 48.6942L21.7271 48.5309C21.7954 48.4797 21.866 48.4806 21.9388 48.5336C21.9775 48.5624 21.9802 48.5935 21.9469 48.6267C21.893 48.6807 21.821 48.7032 21.7311 48.6942Z" fill="#E5E1DE"/>
<path d="M21.0874 53.269C19.2069 56.6496 20.2146 60.9543 21.5461 64.3201C21.5659 64.3713 21.5497 64.4041 21.4975 64.4185L17.4572 65.5072C17.438 65.5125 17.4175 65.5109 17.3993 65.5025C17.381 65.4941 17.3662 65.4795 17.3574 65.4613C16.7031 64.0556 16.1959 62.5407 16.0165 61.0325C15.3798 55.6999 18.7415 51.3089 23.2836 48.9131C23.3 48.9048 23.3187 48.9023 23.3364 48.906C23.3541 48.9096 23.3697 48.9193 23.3807 48.9333L28.1508 54.9175C28.184 54.9603 28.2021 55.013 28.2021 55.0672V56.9977C28.2021 57.0471 28.1773 57.0741 28.1279 57.0786L25.5081 57.2958C25.4635 57.2992 25.4201 57.3119 25.3809 57.333C25.3416 57.3542 25.3073 57.3833 25.2801 57.4185C24.3133 58.6614 23.6015 60.037 23.1446 61.5451C23.1285 61.5982 23.0934 61.6297 23.0394 61.6396C22.4638 61.752 21.9269 61.9629 21.4287 62.2723C21.3783 62.3037 21.3424 62.2916 21.3208 62.2358C20.1903 59.2788 20.1251 56.2953 21.1252 53.2852C21.1262 53.2827 21.1268 53.28 21.1268 53.2773C21.1269 53.2746 21.1264 53.272 21.1254 53.2695C21.1244 53.267 21.1229 53.2647 21.121 53.2627C21.1191 53.2608 21.1169 53.2593 21.1144 53.2582C21.1119 53.2571 21.1092 53.2566 21.1065 53.2566C21.1038 53.2565 21.1012 53.257 21.0987 53.258C21.0962 53.259 21.0939 53.2605 21.0919 53.2624C21.09 53.2643 21.0885 53.2665 21.0874 53.269Z" fill="white"/>
<path d="M29.392 50.8408C29.8453 50.8934 30.3444 50.6641 30.7882 50.5602C30.8431 50.5467 30.8566 50.5643 30.8287 50.6128L28.7769 54.0717C28.7733 54.0774 28.7685 54.0823 28.7628 54.0859C28.7571 54.0894 28.7506 54.0916 28.744 54.0921C28.7373 54.0926 28.7307 54.0915 28.7247 54.0889C28.7187 54.0863 28.7134 54.0822 28.7094 54.0771L25.0455 49.5849C25.0445 49.5841 25.0437 49.5831 25.0431 49.582C25.0425 49.5809 25.0422 49.5797 25.042 49.5784C25.0419 49.5772 25.042 49.5759 25.0424 49.5747C25.0428 49.5735 25.0434 49.5724 25.0442 49.5714C25.045 49.5704 25.0459 49.5696 25.047 49.569C25.0482 49.5684 25.0494 49.568 25.0506 49.5679C25.0519 49.5678 25.0531 49.5679 25.0543 49.5683C25.0556 49.5686 25.0567 49.5692 25.0577 49.57C26.4291 50.2391 27.8739 50.6627 29.392 50.8408ZM28.4939 52.8518C28.5674 52.8541 28.6407 52.8378 28.7098 52.8038C28.7788 52.7699 28.8421 52.7189 28.8962 52.6538C28.9503 52.5887 28.994 52.5107 29.0248 52.4244C29.0557 52.3381 29.0731 52.2451 29.0761 52.1507C29.079 52.0564 29.0675 51.9625 29.0421 51.8744C29.0167 51.7863 28.978 51.7058 28.9281 51.6374C28.8783 51.569 28.8183 51.5142 28.7515 51.4759C28.6847 51.4377 28.6126 51.4168 28.5391 51.4145C28.4656 51.4122 28.3923 51.4285 28.3232 51.4625C28.2542 51.4964 28.1909 51.5474 28.1368 51.6125C28.0827 51.6776 28.039 51.7556 28.0082 51.8419C27.9773 51.9282 27.9599 52.0212 27.9569 52.1156C27.954 52.2099 27.9655 52.3038 27.9909 52.3919C28.0163 52.48 28.055 52.5605 28.1049 52.6289C28.1547 52.6973 28.2147 52.7521 28.2815 52.7904C28.3483 52.8286 28.4204 52.8495 28.4939 52.8518Z" fill="#E5E1DE"/>
<path d="M33.5875 55.8955L34.9999 61.8554C35.0152 61.9183 34.9918 61.9408 34.9297 61.9228L33.9895 61.6449C33.9364 61.6296 33.9013 61.5959 33.8843 61.5437C33.4085 60.1255 32.8118 58.7603 32.0941 57.4482C32.0716 57.4077 32.037 57.3857 31.9903 57.3821L29.1735 57.1878C29.1106 57.1833 29.0791 57.1496 29.0791 57.0866V55.082C29.0791 55.0352 29.0917 54.9921 29.1169 54.9525L32.0051 50.4644C32.0429 50.4041 32.0865 50.3996 32.1359 50.4509C35.2211 53.6629 37.1448 58.0984 36.0427 62.5447C36.033 62.5829 36.0111 62.6169 35.9804 62.6416C35.9496 62.6664 35.9117 62.6804 35.8724 62.6816C35.8331 62.6829 35.7946 62.6712 35.7628 62.6484C35.7309 62.6256 35.7074 62.593 35.696 62.5555L33.605 55.8914C33.604 55.8897 33.6024 55.8883 33.6006 55.8875C33.5988 55.8868 33.5967 55.8866 33.5948 55.887C33.5928 55.8875 33.5911 55.8885 33.5897 55.89C33.5884 55.8916 33.5876 55.8935 33.5875 55.8955Z" fill="white"/>
<path d="M27.9569 52.1151C27.9445 52.512 28.1849 52.8417 28.4939 52.8514C28.8029 52.8611 29.0636 52.5472 29.076 52.1503C29.0885 51.7534 28.8481 51.4238 28.5391 51.4141C28.23 51.4043 27.9694 51.7182 27.9569 52.1151Z" fill="black"/>
<path d="M32.5983 61.283C29.9826 60.9161 27.4653 60.908 24.8348 61.2804C24.7484 61.2929 24.7147 61.2565 24.7336 61.1711C24.8973 60.4273 25.1972 59.7178 25.6334 59.0424C25.8762 58.6673 25.9032 58.4313 26.3915 58.3449C28.0445 58.0526 29.6957 58.0688 31.3451 58.3935C31.3891 58.4016 31.4242 58.4241 31.4503 58.4609C31.909 59.1165 32.6846 60.4116 32.6779 61.2142C32.677 61.2673 32.6505 61.2902 32.5983 61.283Z" fill="white"/>
<path d="M13.4694 71.4185C10.0173 70.1694 7.0954 67.6413 5.2621 64.5076C5.23332 64.4581 5.24726 64.4392 5.30392 64.4509L11.7953 65.8552C11.8457 65.866 11.8907 65.8552 11.9302 65.8229L15.5496 62.824C15.556 62.8187 15.5637 62.8151 15.5718 62.8137C15.58 62.8123 15.5885 62.813 15.5963 62.8159C15.6041 62.8188 15.611 62.8237 15.6163 62.8301C15.6216 62.8365 15.6251 62.8442 15.6265 62.8524C15.792 63.7634 16.1014 64.6231 16.5546 65.4317C16.5762 65.4694 16.5771 65.5076 16.5573 65.5463L13.5989 71.3673C13.5875 71.3903 13.568 71.4084 13.5441 71.4178C13.5201 71.4273 13.4935 71.4275 13.4694 71.4185Z" fill="#9E9492"/>
<path d="M41.6598 67.3537C41.243 66.4836 39.9263 67.6154 39.4097 68.1267C39.4025 68.1336 39.3939 68.1388 39.3845 68.1421C39.3751 68.1453 39.3652 68.1465 39.3554 68.1454C39.3456 68.1444 39.3362 68.1412 39.3278 68.1361C39.3195 68.131 39.3124 68.1241 39.3071 68.1159L36.6415 64.1755C36.6199 64.1434 36.6117 64.1042 36.6186 64.0662L36.8128 63.0301C36.8227 62.978 36.8515 62.9622 36.8992 62.9829C38.5031 63.6574 40.0032 64.7866 41.3158 65.9143C41.3509 65.9449 41.3882 65.948 41.4278 65.9238C42.9045 65.0262 44.4896 64.4066 46.183 64.0648C46.1944 64.0624 46.2062 64.0629 46.2174 64.0662C46.2286 64.0695 46.2388 64.0755 46.2472 64.0838C46.2556 64.092 46.2618 64.1022 46.2655 64.1135C46.2691 64.1248 46.27 64.1368 46.268 64.1485C45.7459 67.0178 43.7858 69.5216 41.4426 71.1795C41.3878 71.2182 41.3702 71.2056 41.39 71.1417C41.7583 69.9559 42.2142 68.5165 41.6598 67.3537Z" fill="#9E9492"/>
<path d="M25.74 72.7537C25.6896 72.7528 25.673 72.729 25.6901 72.6822C26.6569 70.0706 27.3377 67.3856 27.7325 64.6273C27.7406 64.5734 27.7721 64.5464 27.8269 64.5464H29.443C29.4934 64.5464 29.5226 64.5711 29.5307 64.6206C29.9961 67.3105 30.3954 70.0557 30.3927 72.7861C30.3927 72.8311 30.3702 72.8531 30.3253 72.8522L25.74 72.7537Z" fill="white"/>
<path d="M34.6141 72.9317L30.9259 72.8656C30.8818 72.8656 30.8589 72.8436 30.8571 72.7995C30.7339 70.0593 30.4434 67.3365 29.9856 64.6313C29.9836 64.6206 29.984 64.6095 29.9869 64.5989C29.9897 64.5884 29.9948 64.5786 30.002 64.5703C30.0091 64.562 30.018 64.5554 30.028 64.551C30.038 64.5466 30.0489 64.5446 30.0598 64.545L31.1053 64.5908C31.1503 64.5926 31.1827 64.6133 31.2024 64.6529C32.395 67.0343 33.4202 69.3249 34.2782 71.5247C34.4185 71.8836 34.5502 72.3278 34.6734 72.8575C34.6851 72.9079 34.6653 72.9326 34.6141 72.9317Z" fill="white"/>
<path d="M25.1601 72.7526L20.8285 72.6447C20.7889 72.6438 20.7727 72.6235 20.7799 72.584C20.9049 71.8852 20.9692 70.9602 20.9728 69.8091C20.9755 68.916 20.4872 66.4015 19.2002 66.6753C18.9538 66.7275 18.733 66.8849 18.5379 67.1475C17.3818 68.7002 17.8958 70.8033 18.6579 72.4815C18.6626 72.4918 18.6645 72.5031 18.6635 72.5143C18.6625 72.5256 18.6586 72.5364 18.6523 72.5457C18.6459 72.555 18.6373 72.5626 18.6272 72.5676C18.617 72.5727 18.6058 72.5751 18.5945 72.5745L14.1374 72.4329C14.0934 72.432 14.083 72.4127 14.1064 72.3749C15.1923 70.5901 16.25 68.7434 16.9218 66.7563C16.9289 66.7357 16.9408 66.7171 16.9565 66.7019C16.9722 66.6867 16.9913 66.6753 17.0122 66.6686C18.5905 66.1892 20.1715 65.7265 21.7553 65.2805C23.5494 64.7759 25.3746 64.6343 27.1958 64.5709C27.2101 64.5703 27.2244 64.5729 27.2376 64.5786C27.2508 64.5842 27.2626 64.5928 27.2721 64.6036C27.2817 64.6144 27.2887 64.6273 27.2928 64.6412C27.2969 64.6552 27.2978 64.6698 27.2956 64.6842C26.8603 67.4065 26.1881 70.0685 25.2789 72.6703C25.2591 72.7261 25.2195 72.7535 25.1601 72.7526Z" fill="white"/>
<path d="M35.1862 72.9656C35.1666 72.9652 35.1477 72.9586 35.1322 72.9467C35.1166 72.9348 35.1053 72.9182 35.0998 72.8995C34.2891 70.0814 32.9819 67.3308 31.7341 64.68C31.7098 64.6287 31.726 64.6044 31.7826 64.6071C33.0192 64.6773 34.4559 64.8239 36.0927 65.0469C36.2672 65.0712 36.3868 65.1314 36.4515 65.2277C37.2196 66.3725 37.989 67.5237 38.7597 68.6811C38.7771 68.7073 38.7875 68.7374 38.7901 68.7688C38.7927 68.8001 38.7874 68.8317 38.7745 68.8605C38.3226 69.8683 37.5726 71.8702 37.9692 72.9413C37.989 72.9943 37.971 73.02 37.9152 73.0182L35.1862 72.9656Z" fill="white"/>
<path d="M39.9343 73.2273L40.5036 72.5285C40.5078 72.5233 40.5132 72.5192 40.5193 72.5165C40.5253 72.5138 40.532 72.5125 40.5386 72.5127C40.5453 72.513 40.5518 72.5148 40.5577 72.518C40.5635 72.5212 40.5686 72.5257 40.5724 72.5312L41.0971 73.2637C41.102 73.2702 41.1049 73.278 41.1055 73.2861C41.1061 73.2942 41.1044 73.3024 41.1006 73.3096C41.0968 73.3168 41.091 73.3227 41.084 73.3268C41.0769 73.3308 41.0688 73.3328 41.0607 73.3325L39.9667 73.2974C39.9586 73.2972 39.9509 73.2947 39.9442 73.2903C39.9375 73.2859 39.9321 73.2797 39.9288 73.2724C39.9254 73.2651 39.9241 73.257 39.9251 73.249C39.9261 73.2411 39.9293 73.2335 39.9343 73.2273Z" fill="white"/>
</svg>
