<svg width="23" height="23" viewBox="0 0 23 23"  xmlns="http://www.w3.org/2000/svg">
<path fill-rule="evenodd" clip-rule="evenodd" d="M10.1053 0.404846C10.6821 -0.134948 11.5786 -0.134949 12.1554 0.404846L14.4809 2.58148C14.5694 2.66429 14.685 2.71215 14.8061 2.71615L17.9896 2.82148C18.7791 2.8476 19.4131 3.48155 19.4392 4.27106L19.5445 7.45461C19.5485 7.57572 19.5964 7.69127 19.6792 7.77974L21.8558 10.1053C22.3956 10.682 22.3956 11.5786 21.8558 12.1553L19.6792 14.4809C19.5964 14.5694 19.5485 14.6849 19.5445 14.806L19.4392 17.9896C19.4131 18.7791 18.7791 19.413 17.9896 19.4392L14.8061 19.5445C14.685 19.5485 14.5694 19.5963 14.4809 19.6792L12.1554 21.8558C11.5786 22.3956 10.6821 22.3956 10.1053 21.8558L7.77973 19.6792C7.69126 19.5963 7.57572 19.5485 7.4546 19.5445L4.27105 19.4392C3.48155 19.413 2.8476 18.7791 2.82148 17.9896L2.71615 14.806C2.71214 14.6849 2.66428 14.5694 2.58147 14.4809L0.404844 12.1553C-0.134947 11.5786 -0.134948 10.682 0.404844 10.1053L2.58147 7.77974C2.66428 7.69127 2.71214 7.57572 2.71615 7.45461L2.82148 4.27106C2.8476 3.48155 3.48155 2.8476 4.27105 2.82148L7.4546 2.71615C7.57572 2.71215 7.69126 2.66429 7.77973 2.58148L10.1053 0.404846ZM11.472 1.13495C11.2798 0.955016 10.9809 0.955016 10.7887 1.13495L8.46307 3.31158C8.19764 3.56001 7.85102 3.70358 7.48767 3.71561L4.30412 3.82094C4.04095 3.82964 3.82964 4.04096 3.82093 4.30413L3.7156 7.48767C3.70358 7.85103 3.56 8.19765 3.31157 8.46308L1.13495 10.7886C0.955013 10.9809 0.955013 11.2797 1.13495 11.472L3.31157 13.7976C3.56 14.063 3.70358 14.4096 3.7156 14.773L3.82093 17.9565C3.82964 18.2197 4.04095 18.431 4.30412 18.4397L7.48767 18.545C7.85102 18.5571 8.19764 18.7006 8.46307 18.9491L10.7887 21.1257C10.9809 21.3056 11.2798 21.3056 11.472 21.1257L13.7976 18.9491C14.063 18.7006 14.4097 18.5571 14.773 18.545L17.9566 18.4397C18.2197 18.431 18.431 18.2197 18.4397 17.9565L18.5451 14.773C18.5571 14.4096 18.7007 14.063 18.9491 13.7976L21.1257 11.472C21.3057 11.2797 21.3057 10.9809 21.1257 10.7886L18.9491 8.46308C18.7007 8.19765 18.5571 7.85103 18.5451 7.48767L18.4397 4.30413C18.431 4.04096 18.2197 3.82964 17.9566 3.82094L14.773 3.71561C14.4097 3.70358 14.063 3.56001 13.7976 3.31158L11.472 1.13495Z"/>
<path fill-rule="evenodd" clip-rule="evenodd" d="M9.32898 5.78549C11.021 6.95854 12.1299 8.91482 12.1299 11.1309C12.1299 13.3469 11.021 15.3032 9.32898 16.4763C9.74578 16.5773 10.1814 16.6309 10.6299 16.6309C13.6675 16.6309 16.1299 14.1685 16.1299 11.1309C16.1299 8.09329 13.6675 5.63086 10.6299 5.63086C10.1814 5.63086 9.74578 5.68445 9.32898 5.78549ZM7.92132 5.22048C8.74648 4.84176 9.66428 4.63086 10.6299 4.63086C14.2198 4.63086 17.1299 7.54101 17.1299 11.1309C17.1299 14.7208 14.2198 17.6309 10.6299 17.6309C9.66428 17.6309 8.74648 17.42 7.92132 17.0413C7.74372 16.9598 7.62988 16.7823 7.62988 16.5869C7.62988 16.3914 7.74372 16.2139 7.92132 16.1324C9.81588 15.2629 11.1299 13.3498 11.1299 11.1309C11.1299 8.91192 9.81588 6.99885 7.92132 6.12933C7.74372 6.04781 7.62988 5.87031 7.62988 5.6749C7.62988 5.47949 7.74372 5.30199 7.92132 5.22048Z"/>
</svg>
