<svg width="24" height="24" viewBox="0 0 24 24" xmlns="http://www.w3.org/2000/svg">
<path fill-rule="evenodd" clip-rule="evenodd" d="M10.6338 0.908936C11.4028 0.189209 12.5981 0.189208 13.3671 0.908936L15.6927 3.08557L18.8763 3.1909C19.9289 3.22572 20.7742 4.07099 20.809 5.12367L20.9144 8.30721L23.091 10.6328C23.8107 11.4018 23.8107 12.5972 23.091 13.3662L20.9144 15.6918L20.809 18.8753C20.7742 19.928 19.9289 20.7733 18.8763 20.8081L15.6927 20.9134L13.3671 23.09C12.5981 23.8098 11.4028 23.8098 10.6338 23.09L8.30819 20.9134L5.12464 20.8081C4.07197 20.7733 3.2267 19.928 3.19187 18.8753L3.08654 15.6918L0.909913 13.3662C0.190186 12.5972 0.190185 11.4018 0.909912 10.6328L3.08654 8.30721L3.19187 5.12367C3.2267 4.07099 4.07196 3.22572 5.12464 3.1909L8.30819 3.08557L10.6338 0.908936ZM8.58287 5.63467C9.47214 5.22652 10.4609 4.99947 11.5 4.99947C15.366 4.99947 18.5 8.13348 18.5 11.9995C18.5 15.8655 15.366 18.9995 11.5 18.9995C10.4609 18.9995 9.47214 18.7724 8.58287 18.3643C8.22768 18.2013 8 17.8463 8 17.4555C8 17.0646 8.22768 16.7096 8.58287 16.5466C10.3064 15.7556 11.5 14.0159 11.5 11.9995C11.5 9.98309 10.3064 8.24339 8.58287 7.45236C8.22768 7.28934 8 6.93433 8 6.54351C8 6.15269 8.22768 5.79769 8.58287 5.63467Z" />
</svg>
