<svg width="18" height="18" viewBox="0 0 18 18" fill="none" xmlns="http://www.w3.org/2000/svg">
<path d="M2 15C2 15.5523 2.44772 16 3 16H10C10.5523 16 11 15.5523 11 15V12C11 11.7167 11.096 11.479 11.288 11.287C11.48 11.095 11.7173 10.9993 12 11H15C15.5523 11 16 10.5523 16 10V3C16 2.44772 15.5523 2 15 2H3C2.44772 2 2 2.44772 2 3V15ZM2 18C1.45 18 0.979002 17.804 0.587002 17.412C0.195002 17.02 -0.000664969 16.5493 1.69779e-06 16V2C1.69779e-06 1.45 0.196002 0.979002 0.588002 0.587002C0.980002 0.195002 1.45067 -0.000664969 2 1.69779e-06H16C16.55 1.69779e-06 17.021 0.196002 17.413 0.588002C17.805 0.980002 18.0007 1.45067 18 2V11.5858C18 11.851 17.8946 12.1054 17.7071 12.2929L12.2929 17.7071C12.1054 17.8946 11.851 18 11.5858 18H2ZM5 11C4.71667 11 4.479 10.904 4.287 10.712C4.095 10.52 3.99934 10.2827 4 10C4 9.71667 4.096 9.479 4.288 9.287C4.48 9.095 4.71734 8.99934 5 9H8C8.28334 9 8.521 9.096 8.713 9.288C8.905 9.48 9.00067 9.71734 9 10C9 10.2833 8.904 10.521 8.712 10.713C8.52 10.905 8.28267 11.0007 8 11H5ZM5 7C4.71667 7 4.479 6.904 4.287 6.712C4.095 6.52 3.99934 6.28267 4 6C4 5.71667 4.096 5.479 4.288 5.287C4.48 5.095 4.71734 4.99934 5 5H13C13.2833 5 13.521 5.096 13.713 5.288C13.905 5.48 14.0007 5.71734 14 6C14 6.28334 13.904 6.521 13.712 6.713C13.52 6.905 13.2827 7.00067 13 7H5Z" fill="#74A2B2"/>
</svg>
