<svg width="20" height="20" viewBox="0 0 20 20" fill="none" xmlns="http://www.w3.org/2000/svg">
<path d="M17.6905 16.3784C18.717 15.1444 19.431 13.6814 19.772 12.1133C20.113 10.5452 20.071 8.91814 19.6495 7.3697C19.2281 5.82126 18.4396 4.39702 17.3507 3.21747C16.2619 2.03791 14.9047 1.13774 13.394 0.593109C11.8834 0.0484744 10.2637 -0.124604 8.67188 0.0885164C7.08011 0.301637 5.56313 0.894685 4.24926 1.81749C2.93539 2.7403 1.86329 3.96572 1.12365 5.39009C0.384016 6.81446 -0.00140285 8.39587 3.83677e-06 10.0005C0.000543632 12.3333 0.823267 14.5913 2.32381 16.3784L2.30951 16.3906C2.35955 16.4506 2.41673 16.502 2.4682 16.5613C2.53253 16.6348 2.60186 16.7041 2.66834 16.7755C2.86848 16.9927 3.07434 17.2012 3.29021 17.3969C3.35597 17.4569 3.42388 17.5126 3.49035 17.5697C3.71909 17.7669 3.95426 17.954 4.198 18.1283C4.22945 18.1497 4.25805 18.1775 4.2895 18.1997V18.1911C5.96362 19.3682 7.96076 20 10.0079 20C12.055 20 14.0521 19.3682 15.7262 18.1911V18.1997C15.7577 18.1775 15.7856 18.1497 15.8177 18.1283C16.0608 17.9533 16.2966 17.7669 16.5254 17.5697C16.5919 17.5126 16.6598 17.4562 16.7255 17.3969C16.9414 17.2005 17.1472 16.9927 17.3474 16.7755C17.4139 16.7041 17.4825 16.6348 17.5475 16.5613C17.5983 16.502 17.6562 16.4506 17.7062 16.3899L17.6905 16.3784ZM10.0072 4.28687C10.6433 4.28687 11.2652 4.47536 11.7942 4.82852C12.3232 5.18167 12.7354 5.68362 12.9789 6.27089C13.2223 6.85816 13.286 7.50438 13.1619 8.12782C13.0378 8.75127 12.7315 9.32394 12.2816 9.77342C11.8318 10.2229 11.2586 10.529 10.6347 10.653C10.0107 10.777 9.36397 10.7134 8.77622 10.4701C8.18847 10.2269 7.6861 9.81492 7.33266 9.28639C6.97922 8.75786 6.79057 8.13647 6.79057 7.50081C6.79057 6.64842 7.12946 5.83094 7.73268 5.22821C8.33591 4.62548 9.15406 4.28687 10.0072 4.28687ZM4.63848 16.6726C4.41452 16.4915 4.28823 16.2121 4.32851 15.9269C4.43727 15.1568 4.7958 14.4387 5.35551 13.8865C6.02343 13.2276 6.92413 12.8579 7.86276 12.8574H12.1515C13.0902 12.8579 13.9909 13.2276 14.6588 13.8865C15.2185 14.4387 15.577 15.1568 15.6858 15.9269C15.7261 16.2121 15.5998 16.4915 15.3758 16.6726C13.8602 17.8981 11.9659 18.5711 10.0072 18.5711C8.04838 18.5711 6.15407 17.8981 4.63848 16.6726Z" fill="#74A2B2"/>
</svg>
