<svg width="19" height="22" viewBox="0 0 19 22" fill="none" xmlns="http://www.w3.org/2000/svg">
<path d="M2.2353 22C1.62059 22 1.09418 21.7844 0.65606 21.3532C0.217943 20.922 -0.0007432 20.4043 1.89753e-06 19.8V4.4H2.2353V19.8H14.5294V22H2.2353ZM6.70588 17.6C6.09118 17.6 5.56477 17.3844 5.12665 16.9532C4.68853 16.522 4.46984 16.0043 4.47059 15.4V2.2C4.47059 1.595 4.68965 1.0769 5.12777 0.645702C5.56588 0.214502 6.09192 -0.000731466 6.70588 1.86757e-06H16.7647C17.3794 1.86757e-06 17.9058 0.215602 18.3439 0.646802C18.7821 1.078 19.0007 1.59574 19 2.2V15.4C19 16.005 18.7809 16.5231 18.3428 16.9543C17.9047 17.3855 17.3787 17.6007 16.7647 17.6H6.70588ZM6.70588 15.4H16.7647V2.2H6.70588V15.4Z" fill="#74A2B2"/>
</svg>
