<svg width="22" height="16" viewBox="0 0 22 16" fill="none" xmlns="http://www.w3.org/2000/svg">
<path d="M11 5C11.7956 5 12.5587 5.31607 13.1213 5.87868C13.6839 6.44129 14 7.20435 14 8C14 8.79565 13.6839 9.55871 13.1213 10.1213C12.5587 10.6839 11.7956 11 11 11C10.2044 11 9.44129 10.6839 8.87868 10.1213C8.31607 9.55871 8 8.79565 8 8C8 7.20435 8.31607 6.44129 8.87868 5.87868C9.44129 5.31607 10.2044 5 11 5ZM11 0.5C15.8606 0.5 20.0313 3.43897 21.8494 7.63576C21.9501 7.86814 21.9501 8.13186 21.8494 8.36424C20.0313 12.561 15.8606 15.5 11 15.5C6.13943 15.5 1.96872 12.561 0.150616 8.36424C0.0499498 8.13186 0.0499497 7.86814 0.150616 7.63576C1.96872 3.43897 6.13943 0.5 11 0.5ZM2.4063 7.56569C2.25674 7.83606 2.25674 8.16394 2.4063 8.43431C3.21404 9.89447 4.38206 11.1273 5.80248 12.0133C7.36165 12.9858 9.1624 13.5013 11 13.5013C12.8376 13.5013 14.6383 12.9858 16.1975 12.0133C17.6179 11.1273 18.786 9.89447 19.5937 8.43431C19.7433 8.16394 19.7433 7.83606 19.5937 7.56569C18.786 6.10553 17.6179 4.87271 16.1975 3.98675C14.6383 3.01424 12.8376 2.49868 11 2.49868C9.1624 2.49868 7.36165 3.01424 5.80248 3.98675C4.38206 4.87271 3.21404 6.10553 2.4063 7.56569Z" fill="#74A2B2"/>
</svg>
