<svg width="18" height="20" viewBox="0 0 18 20" fill="none" xmlns="http://www.w3.org/2000/svg">
<path d="M0.75 2.5C0.75 1.83696 1.01339 1.20107 1.48223 0.732233C1.95107 0.263392 2.58696 0 3.25 0H14.75C15.0783 0 15.4034 0.0646644 15.7067 0.190301C16.01 0.315938 16.2856 0.500087 16.5178 0.732233C16.7499 0.964379 16.9341 1.23998 17.0597 1.54329C17.1853 1.84661 17.25 2.1717 17.25 2.5V16.75C17.25 16.9489 17.171 17.1397 17.0303 17.2803C16.8897 17.421 16.6989 17.5 16.5 17.5H3.03538C2.60163 17.5 2.23618 17.9004 2.54289 18.2071C2.73043 18.3946 2.98478 18.5 3.25 18.5H16.5C16.6989 18.5 16.8897 18.579 17.0303 18.7197C17.171 18.8603 17.25 19.0511 17.25 19.25C17.25 19.4489 17.171 19.6397 17.0303 19.7803C16.8897 19.921 16.6989 20 16.5 20H3.25C2.58696 20 1.95107 19.7366 1.48223 19.2678C1.01339 18.7989 0.75 18.163 0.75 17.5V2.5ZM9 6C9.26522 6 9.51957 5.89464 9.70711 5.70711C9.89464 5.51957 10 5.26522 10 5C10 4.73478 9.89464 4.48043 9.70711 4.29289C9.51957 4.10536 9.26522 4 9 4C8.73478 4 8.48043 4.10536 8.29289 4.29289C8.10536 4.48043 8 4.73478 8 5C8 5.26522 8.10536 5.51957 8.29289 5.70711C8.48043 5.89464 8.73478 6 9 6ZM8.25 7.75V12.75C8.25 12.9489 8.32902 13.1397 8.46967 13.2803C8.61032 13.421 8.80109 13.5 9 13.5C9.19891 13.5 9.38968 13.421 9.53033 13.2803C9.67098 13.1397 9.75 12.9489 9.75 12.75V7.75C9.75 7.55109 9.67098 7.36032 9.53033 7.21967C9.38968 7.07902 9.19891 7 9 7C8.80109 7 8.61032 7.07902 8.46967 7.21967C8.32902 7.36032 8.25 7.55109 8.25 7.75Z" fill="#74A2B2"/>
</svg>
