<svg width="16" height="18" viewBox="0 0 16 18" fill="none" xmlns="http://www.w3.org/2000/svg">
<path fill-rule="evenodd" clip-rule="evenodd" d="M8.00007 0.5C9.62453 0.499973 11.1855 1.13069 12.3537 2.25912C13.5219 3.38754 14.206 4.92545 14.2617 6.54842L14.2653 6.76316V9.89481C14.2653 10.0501 14.3014 10.2033 14.3709 10.3421L15.896 13.3914C15.9672 13.5336 16.0028 13.691 15.9998 13.85C15.9968 14.0091 15.9553 14.165 15.8789 14.3045C15.8024 14.444 15.6933 14.5629 15.5608 14.651C15.4283 14.7391 15.2765 14.7938 15.1182 14.8104L15.0153 14.8158H0.984824C0.825656 14.8158 0.668849 14.7773 0.52784 14.7035C0.386832 14.6297 0.265827 14.5228 0.175195 14.392C0.0845627 14.2612 0.0270053 14.1104 0.00745503 13.9525C-0.0120952 13.7946 0.00694469 13.6343 0.0629431 13.4853L0.104114 13.3914L1.62923 10.3421C1.69869 10.2033 1.73486 10.0501 1.73486 9.89481V6.76316C1.73486 5.10207 2.39494 3.50901 3.5699 2.33444C4.74485 1.15987 6.33843 0.5 8.00007 0.5ZM8.00007 2.28947C6.84686 2.28954 5.73818 2.73464 4.90526 3.53196C4.07233 4.32928 3.57944 5.41725 3.52939 6.569L3.52492 6.76316V10.1309C3.52493 10.3528 3.48365 10.5728 3.40319 10.7796L3.33607 10.9317L3.0124 11.5791C2.67998 12.244 3.16348 13.0263 3.90684 13.0263H12.0945C12.8378 13.0263 13.3213 12.2442 12.989 11.5793L12.665 10.9308C12.5656 10.7325 12.504 10.5174 12.4833 10.2965L12.4752 10.1309V6.76316C12.4752 5.57666 12.0037 4.43876 11.1645 3.59979C10.3252 2.76081 9.18695 2.28947 8.00007 2.28947Z" fill="#74A2B2"/>
<path d="M9.68548 15.7105C10.2376 15.7105 10.7059 16.1908 10.4133 16.6591C10.3538 16.7543 10.2851 16.8444 10.2077 16.9279C9.90059 17.2589 9.47969 17.4617 9.02935 17.4955L8.8951 17.5H7.10504C6.65343 17.5001 6.21845 17.3296 5.88731 17.0227C5.77878 16.9221 5.67991 16.7972 5.59602 16.6581C5.31073 16.1853 5.76269 15.7105 6.31498 15.7105H9.68548Z" fill="#74A2B2"/>
</svg>
