<svg width="32" height="30" viewBox="0 0 32 30" fill="none" xmlns="http://www.w3.org/2000/svg">
<path d="M30.299 10.0407L21.8459 9.32151C21.4793 9.29031 21.1593 9.06025 21.0131 8.72258L17.7172 1.1136C17.0816 -0.371201 14.913 -0.371201 14.2773 1.1136L10.9817 8.73906C10.8353 9.07772 10.5144 9.30829 10.1467 9.33889L1.71426 10.0407C0.0690922 10.1691 -0.603929 12.1855 0.648638 13.2487L7.04254 18.681C7.3292 18.9245 7.45494 19.3083 7.36796 19.6743L5.45326 27.7301C5.07936 29.3065 6.818 30.553 8.23882 29.7098L15.4877 25.4281C15.8019 25.2424 16.1924 25.2428 16.5063 25.429L23.7557 29.7281C25.1765 30.5714 26.9152 29.3248 26.5413 27.7484L24.6262 19.674C24.5394 19.3082 24.6652 18.9246 24.9517 18.6812L31.3459 13.2487C32.5985 12.1855 31.9441 10.1691 30.299 10.0407ZM16.5069 22.0014C16.1926 21.8151 15.8018 21.8149 15.4874 22.001L10.9965 24.6594C10.2369 25.1091 9.30975 24.4258 9.51436 23.5671L10.8374 18.0147L6.45854 14.2901C5.78149 13.7142 6.13604 12.6073 7.02168 12.532L12.2221 12.0896C12.5896 12.0583 12.9101 11.8273 13.0559 11.4884L15.0802 6.78305C15.4269 5.97718 16.5692 5.97648 16.9169 6.78192L18.957 11.5078C19.103 11.8461 19.4232 12.0766 19.7903 12.1079L24.9915 12.5503C25.8772 12.6257 26.2317 13.7326 25.5547 14.3084L21.6427 17.6358C21.3562 17.8795 21.2307 18.2634 21.3179 18.6294L22.4983 23.583C22.703 24.4421 21.775 25.1254 21.0155 24.675L16.5069 22.0014Z" fill="#74A2B2"/>
</svg>
